<svg xmlns="http://www.w3.org/2000/svg" version="1.1" xmlns:xlink="http://www.w3.org/1999/xlink" xmlns:svgjs="http://svgjs.dev/svgjs" width="1000" height="1000" viewBox="0 0 1000 1000"><rect width="1000" height="1000" fill="#ffffff"></rect><g transform="matrix(0.7,0,0,0.7,149.5757700545591,408.67284303497405)"><svg viewBox="0 0 396 104" data-background-color="#ffffff" preserveAspectRatio="xMidYMid meet" height="262" width="1000" xmlns="http://www.w3.org/2000/svg" xmlns:xlink="http://www.w3.org/1999/xlink"><defs></defs><g id="tight-bounds" transform="matrix(1,0,0,1,0.23999294056369536,-0.211426802820597)"><svg viewBox="0 0 395.52 104.42285360564121" height="104.42285360564121" width="395.52"><g><svg viewBox="0 0 593.0124261265055 156.56363713525033" height="104.42285360564121" width="395.52"><g><rect width="6.554412047358729" height="104.89763688061771" x="173.77986735831237" y="25.83300012731631" fill="#000000" opacity="1" stroke-width="0" stroke="transparent" fill-opacity="1" class="rect-o-0" data-fill-palette-color="primary" rx="1%" id="o-0" data-palette-color="#6f605b"></rect></g><g transform="matrix(1,0,0,1,197.49242612650548,26.093939522541724)"><svg viewBox="0 0 395.52 104.37575809016688" height="104.37575809016688" width="395.52"><g><svg viewBox="0 0 395.52 104.37575809016688" height="104.37575809016688" width="395.52"><g><svg viewBox="0 0 395.52 78.57362801092624" height="78.57362801092624" width="395.52"><g transform="matrix(1,0,0,1,0,0)"><svg width="395.52" viewBox="3.199998378753662 -36.000003814697266 201.34999084472656 37.000003814697266" height="78.57362801092624" data-palette-color="#6f605b"><svg></svg><g class="undefined-text-0" data-fill-palette-color="primary" id="text-0"><path d="M16.25-36v0c2.467 0 4.683 0.507 6.65 1.52 1.967 1.02 3.527 2.547 4.68 4.58 1.147 2.033 1.72 4.6 1.72 7.7v0 9.9c0 2.933-0.583 5.383-1.75 7.35-1.167 1.967-2.733 3.45-4.7 4.45-1.967 1-4.167 1.5-6.6 1.5v0c-2.4 0-4.59-0.5-6.57-1.5-1.987-1-3.563-2.483-4.73-4.45-1.167-1.967-1.75-4.417-1.75-7.35v0-9.9c0-3.1 0.593-5.667 1.78-7.7 1.18-2.033 2.763-3.56 4.75-4.58 1.98-1.013 4.153-1.52 6.52-1.52zM8.5-22.7v10.15c0 1.9 0.25 3.373 0.75 4.42 0.5 1.053 1.067 1.88 1.7 2.48v0c0.567 0.5 1.293 0.917 2.18 1.25 0.88 0.333 1.953 0.5 3.22 0.5v0c1.5 0 2.817-0.327 3.95-0.98 1.133-0.647 2.033-1.63 2.7-2.95 0.667-1.313 1-2.92 1-4.82v0-10.05c0-1.133-0.083-2.117-0.25-2.95-0.167-0.833-0.417-1.55-0.75-2.15-0.333-0.6-0.75-1.117-1.25-1.55v0c-0.567-0.567-1.307-1.017-2.22-1.35-0.92-0.333-1.98-0.5-3.18-0.5v0c-1.833 0-3.323 0.357-4.47 1.07-1.153 0.72-2.003 1.713-2.55 2.98-0.553 1.267-0.83 2.75-0.83 4.45zM42.4 0v0c-0.833 0-1.667 0-2.5 0-0.833 0-1.683 0-2.55 0v0c-0.167 0-0.3-0.05-0.4-0.15-0.1-0.1-0.15-0.233-0.15-0.4v0c0-2.733 0-5.41 0-8.03 0-2.613 0-5.213 0-7.8 0-2.58 0-5.187 0-7.82 0-2.633 0-5.3 0-8v0h6.05l-0.45 1.1c0 0.8 0 1.557 0 2.27 0 0.72 0 1.463 0 2.23v0c0 2.367 0 4.74 0 7.12 0 2.387 0 4.78 0 7.18 0 2.4 0 4.85 0 7.35v0c0 0.9 0 1.767 0 2.6 0 0.833 0 1.617 0 2.35zM34-35v0c2.3 0 4.683 0 7.15 0 2.467 0 4.767 0 6.9 0v0c1.467 0 2.8 0.123 4 0.37 1.2 0.253 2.267 0.637 3.2 1.15 0.933 0.52 1.717 1.17 2.35 1.95 0.633 0.787 1.117 1.73 1.45 2.83 0.333 1.1 0.5 2.35 0.5 3.75v0 3.2c0 1.567-0.223 2.983-0.67 4.25-0.453 1.267-1.147 2.333-2.08 3.2-0.933 0.867-2.117 1.523-3.55 1.97-1.433 0.453-3.117 0.68-5.05 0.68v0c-1.067 0-2.14 0-3.22 0-1.087 0-2.18 0-3.28 0v0l-0.55 0.2v-5c1.233 0 2.45 0 3.65 0 1.2 0 2.317 0 3.35 0v0c0.967 0 1.807-0.1 2.52-0.3 0.72-0.2 1.323-0.517 1.81-0.95 0.48-0.433 0.837-0.977 1.07-1.63 0.233-0.647 0.35-1.42 0.35-2.32v0-3.6c0-0.833-0.09-1.55-0.27-2.15-0.187-0.6-0.497-1.1-0.93-1.5v0c-0.433-0.433-1.033-0.76-1.8-0.98-0.767-0.213-1.717-0.32-2.85-0.32v0c-1.467 0-2.957 0-4.47 0-1.52 0-3.04 0-4.56 0-1.513 0-3.003 0-4.47 0v0c-0.167 0-0.3-0.05-0.4-0.15-0.1-0.1-0.15-0.233-0.15-0.4v0c0-0.767 0-1.483 0-2.15 0-0.667 0-1.367 0-2.1zM63.8-35v0h22.95c0.1 0 0.183 0.023 0.25 0.07 0.067 0.053 0.133 0.12 0.2 0.2 0.067 0.087 0.1 0.18 0.1 0.28v0c0 0.8 0 1.507 0 2.12 0 0.62 0 1.33 0 2.13v0h-22.95c-0.1 0-0.19-0.027-0.27-0.08-0.087-0.047-0.153-0.113-0.2-0.2-0.053-0.08-0.08-0.17-0.08-0.27v0c0-0.767 0-1.477 0-2.13 0-0.647 0-1.353 0-2.12zM69.85-15.35v-4.65h14.1c0.1 0 0.19 0.023 0.27 0.07 0.087 0.053 0.153 0.113 0.2 0.18 0.053 0.067 0.08 0.167 0.08 0.3v0c0 0.5 0 0.983 0 1.45 0 0.467 0 0.907 0 1.32 0 0.42 0 0.863 0 1.33v0zM87.3 0h-20.15c-0.067 0-0.133-0.017-0.2-0.05-0.067-0.033-0.123-0.077-0.17-0.13-0.053-0.047-0.097-0.103-0.13-0.17-0.033-0.067-0.05-0.133-0.05-0.2v0c0-1.367 0-3 0-4.9 0-1.9 0-3.967 0-6.2 0-2.233 0-4.54 0-6.92 0-2.387 0-4.763 0-7.13 0-2.367 0-4.6 0-6.7v0h5.9l-0.35 0.9c0 0.7 0 1.433 0 2.2 0 0.767 0 1.533 0 2.3v0c0 1.7 0 3.473 0 5.32 0 1.853 0 3.73 0 5.63 0 1.9 0 3.8 0 5.7 0 1.9 0 3.75 0 5.55v0h14.6c0.167 0 0.3 0.05 0.4 0.15 0.1 0.1 0.15 0.233 0.15 0.4v0c0 0.733 0 1.44 0 2.12 0 0.687 0 1.397 0 2.13zM98.45 0v0c-0.767 0-1.55 0-2.35 0-0.8 0-1.6 0-2.4 0v0c-0.1 0-0.193-0.027-0.28-0.08-0.08-0.047-0.147-0.113-0.2-0.2-0.047-0.08-0.07-0.17-0.07-0.27v0c0-2.4 0-4.783 0-7.15 0-2.367 0-4.743 0-7.13 0-2.38 0-4.763 0-7.15 0-2.38 0-4.753 0-7.12v0c0-1 0-1.993 0-2.98 0-0.98 0-1.953 0-2.92v0c0.6 0 1.283 0 2.05 0 0.767 0 1.533 0 2.3 0 0.767 0 1.433 0 2 0v0c0.167 0 0.3 0.023 0.4 0.07 0.1 0.053 0.207 0.153 0.32 0.3 0.12 0.153 0.28 0.43 0.48 0.83v0c0.633 1.167 1.307 2.433 2.02 3.8 0.72 1.367 1.48 2.807 2.28 4.32 0.8 1.52 1.617 3.087 2.45 4.7 0.833 1.62 1.673 3.247 2.52 4.88 0.853 1.633 1.697 3.257 2.53 4.87 0.833 1.62 1.633 3.213 2.4 4.78v0l-1.95-1.5h3.2l-0.95 0.8c-0.2-1.533-0.367-3.027-0.5-4.48-0.133-1.447-0.24-2.853-0.32-4.22-0.087-1.367-0.157-2.717-0.21-4.05-0.047-1.333-0.077-2.643-0.09-3.93-0.02-1.28-0.03-2.57-0.03-3.87v0c0-1.1 0-2.277 0-3.53 0-1.247 0-2.503 0-3.77v0c0.8 0 1.59 0 2.37 0 0.787 0 1.58 0 2.38 0v0c0.167 0 0.3 0.05 0.4 0.15 0.1 0.1 0.15 0.233 0.15 0.4v0c0 2.3 0 4.623 0 6.97 0 2.353 0 4.697 0 7.03 0 2.333 0 4.657 0 6.97 0 2.32 0 4.647 0 6.98v0c0 1.1 0 2.19 0 3.27 0 1.087 0 2.163 0 3.23v0c-0.533 0-1.133 0-1.8 0-0.667 0-1.317 0-1.95 0-0.633 0-1.2 0-1.7 0v0c-0.2 0-0.407-0.067-0.62-0.2-0.22-0.133-0.497-0.483-0.83-1.05v0c-1.333-2.367-2.64-4.727-3.92-7.08-1.287-2.347-2.537-4.68-3.75-7-1.22-2.313-2.423-4.637-3.61-6.97-1.18-2.333-2.353-4.667-3.52-7v0l2.05 1.8h-3.1l0.85-1.15c0.2 1.667 0.35 3.273 0.45 4.82 0.1 1.553 0.19 3.037 0.27 4.45 0.087 1.42 0.157 2.787 0.21 4.1 0.047 1.32 0.07 2.58 0.07 3.78 0 1.2 0 2.333 0 3.4v0c0 1.233 0 2.55 0 3.95 0 1.4 0 2.783 0 4.15zM149.9 0v0h-24.15c-0.167 0-0.3-0.05-0.4-0.15-0.1-0.1-0.15-0.233-0.15-0.4v0-5.2c1.4-1.8 2.783-3.583 4.15-5.35 1.367-1.767 2.773-3.577 4.22-5.43 1.453-1.847 2.93-3.77 4.43-5.77v0c0.633-0.867 1.207-1.61 1.72-2.23 0.52-0.613 1.007-1.163 1.46-1.65 0.447-0.48 0.903-0.937 1.37-1.37 0.467-0.433 0.96-0.867 1.48-1.3 0.513-0.433 1.103-0.917 1.77-1.45v0l-1.45 2.3v-3.2l0.9 1.2c-2.167 0-4.04 0-5.62 0-1.587 0-3.013 0-4.28 0-1.267 0-2.517 0-3.75 0v0h-1.5c-0.733 0-1.367-0.1-1.9-0.3-0.533-0.2-0.983-0.5-1.35-0.9-0.367-0.4-0.65-0.917-0.85-1.55-0.2-0.633-0.317-1.383-0.35-2.25v0h23.6c0.133 0 0.233 0.023 0.3 0.07 0.067 0.053 0.123 0.113 0.17 0.18 0.053 0.067 0.08 0.167 0.08 0.3v0 5.2c-0.833 1.033-1.84 2.29-3.02 3.77-1.187 1.487-2.507 3.17-3.96 5.05-1.447 1.887-2.987 3.93-4.62 6.13v0c-0.8 1.1-1.5 2.033-2.1 2.8-0.6 0.767-1.157 1.423-1.67 1.97-0.52 0.553-1.02 1.063-1.5 1.53-0.487 0.467-1.003 0.94-1.55 1.42-0.553 0.487-1.163 1.03-1.83 1.63v0l1.2-1.95v3.25l-0.85-1.35c2.167 0 4.167 0 6 0 1.833 0 3.543 0 5.13 0 1.58 0 3.07 0 4.47 0v0h3.85c0.167 0 0.3 0.05 0.4 0.15 0.1 0.1 0.15 0.233 0.15 0.4v0c0 0.733 0 1.473 0 2.22 0 0.753 0 1.497 0 2.23zM130.7-26.4v0c-0.8 0-1.55 0-2.25 0-0.7 0-1.45 0-2.25 0v0c-0.1 0-0.193-0.027-0.28-0.08-0.08-0.047-0.147-0.113-0.2-0.2-0.047-0.08-0.07-0.17-0.07-0.27v0c0-0.567 0-1.193 0-1.88 0-0.68 0-1.387 0-2.12 0-0.733 0-1.45 0-2.15 0-0.7 0-1.333 0-1.9v0c1.333 0 2.367 0.133 3.1 0.4 0.733 0.267 1.243 0.7 1.53 1.3 0.28 0.6 0.42 1.4 0.42 2.4v0c0 0.433 0 0.917 0 1.45 0 0.533 0 1.067 0 1.6 0 0.533 0 1.017 0 1.45zM167.8-2.8v0h-5.75l0.15-1.55c0-0.6 0-1.25 0-1.95 0-0.7 0-1.35 0-1.95v0c0-2 0-3.993 0-5.98 0-1.98 0-3.963 0-5.95 0-1.98 0-3.97 0-5.97 0-2 0-4.017 0-6.05v0h5.85l-0.25 1.55c0 0.533 0 1.117 0 1.75 0 0.633 0 1.233 0 1.8v0c0 2.033 0 4.057 0 6.07 0 2.02 0 4.047 0 6.08 0 2.033 0 4.057 0 6.07 0 2.02 0 4.047 0 6.08zM173.8 0v0h-17.05c-0.067 0-0.133-0.017-0.2-0.05-0.067-0.033-0.123-0.077-0.17-0.13-0.053-0.047-0.097-0.103-0.13-0.17-0.033-0.067-0.05-0.133-0.05-0.2v0c0-0.5 0-0.983 0-1.45 0-0.467 0-0.927 0-1.38 0-0.447 0-0.92 0-1.42v0h17c0.1 0 0.2 0.023 0.3 0.07 0.1 0.053 0.173 0.12 0.22 0.2 0.053 0.087 0.08 0.18 0.08 0.28v0c0 0.5 0 0.973 0 1.42 0 0.453 0 0.913 0 1.38 0 0.467 0 0.95 0 1.45zM156.2-35v0h17c0.2 0 0.35 0.05 0.45 0.15 0.1 0.1 0.15 0.233 0.15 0.4v0c0 0.367 0 0.733 0 1.1 0 0.367 0 0.717 0 1.05 0 0.333 0 0.673 0 1.02 0 0.353 0 0.713 0 1.08v0h-17.05c-0.133 0-0.257-0.06-0.37-0.18-0.12-0.113-0.18-0.237-0.18-0.37v0c0-0.367 0-0.727 0-1.08 0-0.347 0-0.687 0-1.02 0-0.333 0-0.683 0-1.05 0-0.367 0-0.733 0-1.1zM187.4 0v0c-0.833 0-1.667 0-2.5 0-0.833 0-1.683 0-2.55 0v0c-0.167 0-0.3-0.05-0.4-0.15-0.1-0.1-0.15-0.233-0.15-0.4v0c0-2.733 0-5.41 0-8.03 0-2.613 0-5.213 0-7.8 0-2.58 0-5.187 0-7.82 0-2.633 0-5.3 0-8v0h6.05l-0.45 1.1c0 0.8 0 1.557 0 2.27 0 0.72 0 1.463 0 2.23v0c0 2.367 0 4.74 0 7.12 0 2.387 0 4.78 0 7.18 0 2.4 0 4.85 0 7.35v0c0 0.9 0 1.767 0 2.6 0 0.833 0 1.617 0 2.35zM179-35v0c2.3 0 4.683 0 7.15 0 2.467 0 4.767 0 6.9 0v0c1.467 0 2.8 0.123 4 0.37 1.2 0.253 2.267 0.637 3.2 1.15 0.933 0.52 1.717 1.17 2.35 1.95 0.633 0.787 1.117 1.73 1.45 2.83 0.333 1.1 0.5 2.35 0.5 3.75v0 3.2c0 1.567-0.223 2.983-0.67 4.25-0.453 1.267-1.147 2.333-2.08 3.2-0.933 0.867-2.117 1.523-3.55 1.97-1.433 0.453-3.117 0.68-5.05 0.68v0c-1.067 0-2.143 0-3.23 0-1.08 0-2.17 0-3.27 0v0l-0.55 0.2v-5c1.233 0 2.45 0 3.65 0 1.2 0 2.317 0 3.35 0v0c0.967 0 1.81-0.1 2.53-0.3 0.713-0.2 1.31-0.517 1.79-0.95 0.487-0.433 0.847-0.977 1.08-1.63 0.233-0.647 0.35-1.42 0.35-2.32v0-3.6c0-0.833-0.09-1.55-0.27-2.15-0.187-0.6-0.497-1.1-0.93-1.5v0c-0.433-0.433-1.033-0.76-1.8-0.98-0.767-0.213-1.717-0.32-2.85-0.32v0c-1.467 0-2.96 0-4.48 0-1.513 0-3.027 0-4.54 0-1.52 0-3.013 0-4.48 0v0c-0.167 0-0.3-0.05-0.4-0.15-0.1-0.1-0.15-0.233-0.15-0.4v0c0-0.767 0-1.483 0-2.15 0-0.667 0-1.367 0-2.1z" data-fill-palette-color="primary" fill="#000000" opacity="1"></path></g></svg></g></svg></g><g transform="matrix(1,0,0,1,0,95.73177473176061)"><svg viewBox="0 0 232.20979200000002 8.64398335840627" height="8.64398335840627" width="232.20979200000002"><g transform="matrix(1,0,0,1,0,0)"><svg width="232.20979200000002" viewBox="2.930000066757202 -34.54999923706055 1333.2598876953125 49.63999938964844" height="8.64398335840627" data-palette-color="#f36527"><path d="M4.15 0L4.15-3.66 8.3-3.66 8.3-30.15 2.93-30.15 2.93-34.06 13.55-34.06 13.55-19.87Q15.33-21.7 17.88-22.75 20.43-23.8 23.44-23.8L23.44-23.8Q26.88-23.8 29.53-22.79 32.18-21.78 34-20.1 35.82-18.43 36.76-16.28 37.7-14.14 37.7-11.84L37.7-11.84Q37.7-9.06 36.71-6.75 35.72-4.44 33.87-2.78 32.03-1.12 29.43-0.2 26.83 0.73 23.61 0.73L23.61 0.73Q20.51 0.73 17.92-0.21 15.33-1.15 13.55-2.98L13.55-2.98 13.55 0 4.15 0ZM15.33-23.44L15.33-32.81 16.31-32.81 16.31-23.93 15.33-23.44ZM4.39-27.51L4.39-28.44 7.28-28.44 7.28-27.51 4.39-27.51ZM5.62 1.71L15.31 1.71 15.31 0.44Q16.19 0.9 17.21 1.27 18.24 1.64 19.32 1.89 20.41 2.15 21.51 2.29 22.61 2.44 23.61 2.44L23.61 2.44Q27.05 2.44 29.96 1.46 32.86 0.49 34.97-1.34 37.08-3.17 38.27-5.82 39.45-8.47 39.45-11.84L39.45-11.84Q39.45-13.53 39.07-14.97 38.7-16.41 38.07-17.61 37.45-18.82 36.65-19.8 35.84-20.78 34.99-21.56L34.99-21.56Q36.3-20.87 37.32-19.82 38.33-18.77 39.03-17.49 39.72-16.21 40.09-14.76 40.45-13.31 40.45-11.84L40.45-11.84Q40.45-8.35 39.23-5.53 38.01-2.71 35.8-0.73 33.59 1.25 30.48 2.31 27.37 3.37 23.58 3.37L23.58 3.37Q22.75 3.37 21.78 3.26 20.8 3.15 19.8 2.93 18.8 2.71 17.86 2.4 16.92 2.1 16.16 1.71L16.16 1.71 16.16 2.64 5.62 2.64 5.62 1.71ZM13.55-11.35L13.55-11.35Q13.55-9.11 14.43-7.53 15.31-5.96 16.74-4.96 18.16-3.96 20-3.49 21.83-3.03 23.73-3.03L23.73-3.03Q25.71-3.03 27.31-3.64 28.91-4.25 30.04-5.37 31.18-6.49 31.79-8.09 32.4-9.69 32.4-11.65L32.4-11.65Q32.4-13.5 31.68-15.05 30.96-16.6 29.71-17.7 28.47-18.8 26.77-19.41 25.07-20.02 23.12-20.02L23.12-20.02Q21.09-20.02 19.35-19.41 17.6-18.8 16.32-17.66 15.04-16.53 14.29-14.93 13.55-13.33 13.55-11.35ZM15.31-11.35L15.31-11.35Q15.31-12.82 15.86-14.09 16.41-15.36 17.42-16.3 18.43-17.24 19.87-17.77 21.31-18.31 23.12-18.31L23.12-18.31Q25.05-18.31 26.59-17.76 28.13-17.21 29.05-15.97L29.05-15.97Q27.44-16.75 26.07-17.07 24.71-17.38 23.12-17.38L23.12-17.38Q21.53-17.38 20.28-16.91 19.02-16.43 18.14-15.6 17.26-14.77 16.8-13.68 16.33-12.6 16.33-11.35L16.33-11.35Q16.33-9.38 17.46-7.76 18.58-6.15 21.09-4.98L21.09-4.98Q19.75-5.15 18.68-5.73 17.6-6.3 16.86-7.17 16.11-8.03 15.71-9.11 15.31-10.18 15.31-11.35ZM46.41 0L46.41-3.66 51.78-3.66 51.78-19.41 46.41-19.41 46.41-23.56 57.03-23.56 57.03-19.48Q57.79-20.46 58.85-21.34 59.91-22.22 61.25-22.88 62.6-23.54 64.18-23.91 65.77-24.29 67.58-24.29L67.58-24.29Q68.11-24.29 68.92-24.26 69.72-24.22 70.46-24.1L70.46-24.1 70.46-19.31Q69.6-19.51 68.77-19.58 67.94-19.65 67.16-19.65L67.16-19.65Q65.21-19.65 63.46-19.03 61.72-18.41 60.35-17.22 58.98-16.04 58.1-14.33 57.22-12.62 57.03-10.42L57.03-10.42 57.03-3.66 65.82-3.66 65.82 0 46.41 0ZM58.74-5.13L58.74-8.23Q58.74-10.52 59.32-12.33 59.91-14.14 61-15.38 62.08-16.63 63.64-17.29 65.21-17.94 67.16-17.94L67.16-17.94Q67.58-17.94 68.21-17.88 68.85-17.82 69.54-17.7 70.24-17.58 70.94-17.4 71.65-17.21 72.21-16.97L72.21-16.97 72.21-22.73 73.19-22.73 73.19-15.75Q72.51-16.04 71.71-16.27 70.92-16.5 70.1-16.67 69.28-16.85 68.53-16.93 67.77-17.02 67.16-17.02L67.16-17.02Q65.38-17.02 64-16.43 62.62-15.84 61.67-14.75 60.72-13.65 60.21-12.06 59.71-10.47 59.71-8.47L59.71-8.47 59.71-5.13 58.74-5.13ZM47.87-16.77L47.87-17.7 50.75-17.7 50.75-16.77 47.87-16.77ZM47.87 1.71L67.58 1.71 67.58-2.29 68.55-2.29 68.55 2.64 47.87 2.64 47.87 1.71ZM80.98-5.47L80.98-5.47Q80.49-6.71 80.26-8.18 80.02-9.64 80.02-11.4L80.02-11.4 80.02-19.41 75.87-19.41 75.87-23.56 85.27-23.56 85.27-13.48Q85.27-11.5 85.46-9.95 85.64-8.4 85.98-7.52L85.98-7.52Q86.42-6.4 87.13-5.62 87.84-4.83 88.73-4.35 89.62-3.86 90.66-3.64 91.69-3.42 92.82-3.42L92.82-3.42Q94.01-3.42 95.3-3.86 96.58-4.3 97.77-5.08 98.97-5.86 100.01-6.93 101.04-8.01 101.75-9.25L101.75-9.25 101.75-19.41 96.38-19.41 96.38-23.56 107-23.56 107-3.66 111.15-3.66 111.15 0 101.75 0 101.75-3.71Q100.97-2.76 99.86-1.95 98.75-1.15 97.39-0.55 96.04 0.05 94.48 0.39 92.91 0.73 91.23 0.73L91.23 0.73Q87.59 0.73 84.92-0.79 82.25-2.32 80.98-5.47ZM108.71-5.13L108.71-22.31 109.69-22.31 109.69-5.13 108.71-5.13ZM87.03-12.01L87.03-22.31 88.01-22.31 88.01-12.28Q88.01-10.38 88.37-9.11 88.74-7.84 89.35-7.03 89.96-6.23 90.74-5.79 91.52-5.35 92.35-5.1L92.35-5.1Q89.79-5.13 88.41-6.8 87.03-8.47 87.03-12.01L87.03-12.01ZM97.85-16.77L97.85-17.7 100.73-17.7 100.73-16.77 97.85-16.77ZM77.34-16.77L77.34-17.7 79-17.7 79-16.77 77.34-16.77ZM103.22 1.71L112.91 1.71 112.91-2.29 113.89-2.29 113.89 2.64 103.22 2.64 103.22 1.71ZM81.25-1.64L81.25-1.64Q83.15 0.42 85.54 1.43 87.93 2.44 91.25 2.44L91.25 2.44Q94.21 2.44 96.54 1.67 98.87 0.9 100.78-0.42L100.78-0.42 100.78 0.71Q98.63 2.1 96.31 2.73 93.99 3.37 91.28 3.37L91.28 3.37Q87.59 3.37 85 2.09 82.42 0.81 81.25-1.64ZM123.63-8.74L123.63-19.41 118.25-19.41 118.25-23.56 123.63-23.56 123.63-28.49 128.87-30.69 128.87-23.56 141.01-23.56 141.01-19.41 128.87-19.41 128.87-7.76Q128.87-5.93 130.02-5.04 131.17-4.15 133.15-4.15L133.15-4.15 140.03-4.15 140.03 0 133.15 0Q131.17 0 129.44-0.43 127.7-0.85 126.41-1.87 125.11-2.88 124.37-4.55 123.63-6.23 123.63-8.74L123.63-8.74ZM130.63-25.02L130.63-29.35 131.61-29.79 131.61-25.02 130.63-25.02ZM130.58-6.76L130.58-17.97 142.77-17.97 142.77-22.46 143.74-22.46 143.74-17.04 131.56-17.04 131.56-5.79Q130.73-6.01 130.58-6.76L130.58-6.76ZM119.72-16.77L119.72-17.7 122.65-17.7 122.65-16.77 119.72-16.77ZM123.48-2.1L123.48-2.1Q124.26-1 125.22-0.27 126.19 0.46 127.39 0.9 128.58 1.34 130 1.53 131.41 1.71 133.1 1.71L133.1 1.71 141.79 1.71 141.79-3.05 142.77-3.05 142.77 2.64 132.98 2.64Q131.1 2.64 129.56 2.39 128.02 2.15 126.84 1.6 125.65 1.05 124.81 0.13 123.97-0.78 123.48-2.1ZM148.96-11.33L148.96-11.33Q148.96-13.92 149.92-16.26 150.87-18.6 152.77-20.39 154.68-22.17 157.51-23.23 160.34-24.29 164.08-24.29L164.08-24.29Q167.59-24.29 170.35-23.35 173.11-22.41 175.04-20.63 176.97-18.85 177.98-16.27 178.99-13.7 178.99-10.4L178.99-10.4 154.31-10.4Q154.53-8.64 155.45-7.28 156.36-5.91 157.78-4.97 159.19-4.03 160.99-3.54 162.78-3.05 164.74-3.05L164.74-3.05Q166.32-3.05 167.97-3.31 169.62-3.56 171.08-4 172.55-4.44 173.7-4.99 174.84-5.54 175.45-6.13L175.45-6.13 176.38-6.13 178.68-3.64Q176.16-1.49 172.56-0.38 168.96 0.73 164.61 0.73L164.61 0.73Q160.83 0.73 157.91-0.2 154.99-1.12 153.01-2.76 151.02-4.39 149.99-6.59 148.96-8.79 148.96-11.33ZM156.66-8.69L180.65-8.69Q180.7-9.06 180.73-9.48 180.75-9.91 180.75-10.4L180.75-10.4Q180.75-12.48 180.32-14.37 179.9-16.26 179.08-17.88 178.26-19.51 177.07-20.85 175.87-22.19 174.36-23.14L174.36-23.14Q175.97-22.51 177.32-21.4 178.68-20.29 179.65-18.7 180.63-17.11 181.18-15.04 181.73-12.96 181.73-10.4L181.73-10.4Q181.73-10.21 181.72-9.91 181.7-9.62 181.68-9.25 181.66-8.89 181.62-8.51 181.58-8.13 181.53-7.76L181.53-7.76 158.46-7.76Q158.93-6.98 160.17-6.16 161.42-5.35 163.39-4.79L163.39-4.79Q162.17-4.79 161.11-5.08 160.05-5.37 159.18-5.88 158.32-6.4 157.67-7.12 157.02-7.84 156.66-8.69L156.66-8.69ZM154.46-13.45L173.35-13.45Q172.96-15.14 172.15-16.46 171.33-17.77 170.13-18.66 168.94-19.56 167.4-20.03 165.86-20.51 164.03-20.51L164.03-20.51Q162.05-20.51 160.43-19.98 158.8-19.46 157.58-18.52 156.36-17.58 155.57-16.28 154.78-14.99 154.46-13.45L154.46-13.45ZM157.8-14.5L156.68-14.5Q157.58-16.5 159.52-17.65 161.46-18.8 164.03-18.8L164.03-18.8Q165.08-18.8 166.07-18.63 167.06-18.46 167.9-18.1 168.74-17.75 169.37-17.24 170.01-16.72 170.38-16.06L170.38-16.06Q168.98-16.99 167.4-17.43 165.81-17.87 163.98-17.87L163.98-17.87Q161.86-17.87 160.24-16.99 158.63-16.11 157.8-14.5L157.8-14.5ZM151.92-1.07L151.92-1.07Q154.29 0.61 157.42 1.54 160.56 2.47 164.61 2.47L164.61 2.47Q168.57 2.47 172.02 1.56 175.48 0.66 178.26-1.2L178.26-1.2 178.92-0.49Q175.77 1.64 172.29 2.51 168.81 3.39 165 3.39L165 3.39Q160.05 3.39 156.79 2.2 153.53 1 151.92-1.07ZM203.57 0L203.57-3.66 208.94-3.66 208.94-16.72 203.57-16.72 203.57-20.39 208.94-20.39 208.94-23.93Q208.94-26.27 209.71-28.22 210.48-30.18 211.9-31.58 213.32-32.98 215.34-33.76 217.37-34.55 219.91-34.55L219.91-34.55Q222.13-34.55 223.84-34 225.55-33.45 226.76-32.48 227.96-31.52 228.7-30.2 229.43-28.88 229.72-27.32L229.72-27.32 224.69-27.32Q224.47-27.83 224.13-28.33 223.79-28.83 223.23-29.24 222.67-29.64 221.86-29.9 221.05-30.15 219.91-30.15L219.91-30.15Q218.81-30.15 217.77-29.8 216.73-29.44 215.94-28.72 215.15-28 214.67-26.9 214.19-25.81 214.19-24.34L214.19-24.34 214.19-20.39 225.5-20.39 225.5-16.72 214.19-16.72 214.19-3.66 222.49-3.66 222.49 0 203.57 0ZM226.16-24.68L226.16-25.61 231.48-25.61 231.48-25.93Q231.48-27.08 231.24-28.14 230.99-29.2 230.58-30.15 230.16-31.1 229.61-31.91 229.06-32.71 228.45-33.35L228.45-33.35Q229.43-32.86 230.19-31.98 230.94-31.1 231.44-30.09 231.94-29.08 232.2-28.08 232.46-27.08 232.46-26.34L232.46-26.34 232.46-24.68 226.16-24.68ZM215.9-22.09L215.9-22.63Q215.9-24.37 216.24-25.51 216.59-26.66 217.17-27.33 217.76-28 218.53-28.27 219.3-28.54 220.15-28.54L220.15-28.54Q220.76-28.54 221.26-28.39 221.76-28.25 222.13-28.03 222.49-27.81 222.74-27.55 222.98-27.29 223.11-27.05L223.11-27.05Q222.2-27.51 221.35-27.6 220.49-27.69 220.1-27.69L220.1-27.69Q219.49-27.69 218.92-27.49 218.34-27.29 217.89-26.75 217.44-26.2 217.16-25.21 216.88-24.22 216.88-22.61L216.88-22.61 216.88-22.09 215.9-22.09ZM215.9-5.13L215.9-15.01 227.26-15.01 227.26-19.02 228.23-19.02 228.23-14.09 216.88-14.09 216.88-5.13 215.9-5.13ZM205.04-14.09L205.04-15.01 207.97-15.01 207.97-14.09 205.04-14.09ZM205.04 1.71L224.25 1.71 224.25-2.29 225.23-2.29 225.23 2.64 205.04 2.64 205.04 1.71ZM234.77-11.4L234.77-11.4Q234.77-14.06 235.92-16.42 237.07-18.77 239.13-20.52 241.19-22.27 244.07-23.28 246.96-24.29 250.4-24.29L250.4-24.29Q254.01-24.29 256.86-23.33 259.7-22.36 261.66-20.65 263.63-18.95 264.67-16.6 265.71-14.26 265.71-11.5L265.71-11.5Q265.71-8.84 264.57-6.59 263.43-4.35 261.35-2.72 259.26-1.1 256.34-0.18 253.42 0.73 249.84 0.73L249.84 0.73Q246.44 0.73 243.67-0.28 240.9-1.29 238.92-2.98 236.95-4.66 235.86-6.85 234.77-9.03 234.77-11.4ZM238.61-1.12L238.61-1.12Q240.97 0.59 243.84 1.51 246.71 2.44 250.32 2.44L250.32 2.44Q253.69 2.44 256.79 1.53 259.89 0.61 262.26-1.17 264.63-2.95 266.05-5.55 267.46-8.15 267.46-11.5L267.46-11.5Q267.46-13.13 267.01-14.81 266.56-16.48 265.74-18.02 264.92-19.56 263.75-20.89 262.58-22.22 261.14-23.14L261.14-23.14Q262.78-22.41 264.13-21.22 265.49-20.02 266.44-18.49 267.39-16.97 267.91-15.19 268.44-13.4 268.44-11.5L268.44-11.5Q268.44-9.11 267.76-7.07 267.07-5.03 265.86-3.38 264.66-1.73 262.98-0.46 261.31 0.81 259.31 1.65 257.31 2.49 255.05 2.93 252.79 3.37 250.45 3.37L250.45 3.37Q248.49 3.37 246.71 3.06 244.93 2.76 243.4 2.19 241.88 1.61 240.66 0.78 239.44-0.05 238.61-1.12ZM240.19-11.5L240.19-11.5Q240.19-9.62 240.91-8.07 241.63-6.52 242.95-5.41 244.27-4.3 246.11-3.69 247.96-3.08 250.2-3.08L250.2-3.08Q252.47-3.08 254.33-3.7 256.18-4.32 257.53-5.43 258.87-6.54 259.6-8.09 260.33-9.64 260.33-11.5L260.33-11.5Q260.33-13.33 259.6-14.95 258.87-16.58 257.55-17.81 256.23-19.04 254.39-19.76 252.55-20.48 250.32-20.48L250.32-20.48Q248-20.48 246.14-19.79 244.27-19.09 242.95-17.88 241.63-16.67 240.91-15.04 240.19-13.4 240.19-11.5ZM241.9-11.4L241.9-11.4Q241.9-12.94 242.51-14.29 243.12-15.65 244.23-16.64 245.34-17.63 246.89-18.2 248.44-18.77 250.32-18.77L250.32-18.77Q251.52-18.77 252.64-18.52 253.77-18.26 254.72-17.77 255.67-17.29 256.4-16.59 257.14-15.89 257.58-15.01L257.58-15.01Q255.96-16.48 254.22-17.16 252.47-17.85 250.28-17.85L250.28-17.85Q248.69-17.85 247.35-17.33 246-16.82 245-15.94 244-15.06 243.44-13.89 242.88-12.72 242.88-11.4L242.88-11.4Q242.88-10.3 243.15-9.35 243.42-8.4 244.06-7.58 244.71-6.76 245.78-6.1 246.86-5.44 248.47-4.93L248.47-4.93Q247-5.03 245.8-5.55 244.59-6.08 243.72-6.93 242.85-7.79 242.38-8.94 241.9-10.08 241.9-11.4ZM274.78 0L274.78-3.66 280.16-3.66 280.16-19.41 274.78-19.41 274.78-23.56 285.4-23.56 285.4-19.48Q286.16-20.46 287.22-21.34 288.29-22.22 289.63-22.88 290.97-23.54 292.56-23.91 294.15-24.29 295.95-24.29L295.95-24.29Q296.49-24.29 297.29-24.26 298.1-24.22 298.83-24.1L298.83-24.1 298.83-19.31Q297.98-19.51 297.15-19.58 296.32-19.65 295.54-19.65L295.54-19.65Q293.58-19.65 291.84-19.03 290.09-18.41 288.73-17.22 287.36-16.04 286.48-14.33 285.6-12.62 285.4-10.42L285.4-10.42 285.4-3.66 294.19-3.66 294.19 0 274.78 0ZM287.11-5.13L287.11-8.23Q287.11-10.52 287.7-12.33 288.29-14.14 289.37-15.38 290.46-16.63 292.02-17.29 293.58-17.94 295.54-17.94L295.54-17.94Q295.95-17.94 296.59-17.88 297.22-17.82 297.92-17.7 298.61-17.58 299.32-17.4 300.03-17.21 300.59-16.97L300.59-16.97 300.59-22.73 301.57-22.73 301.57-15.75Q300.88-16.04 300.09-16.27 299.3-16.5 298.48-16.67 297.66-16.85 296.9-16.93 296.15-17.02 295.54-17.02L295.54-17.02Q293.75-17.02 292.38-16.43 291-15.84 290.04-14.75 289.09-13.65 288.59-12.06 288.09-10.47 288.09-8.47L288.09-8.47 288.09-5.13 287.11-5.13ZM276.25-16.77L276.25-17.7 279.13-17.7 279.13-16.77 276.25-16.77ZM276.25 1.71L295.95 1.71 295.95-2.29 296.93-2.29 296.93 2.64 276.25 2.64 276.25 1.71ZM306.08-11.33L306.08-11.33Q306.08-13.92 307.19-16.26 308.3-18.6 310.32-20.39 312.33-22.17 315.18-23.23 318.02-24.29 321.46-24.29L321.46-24.29Q324.34-24.29 326.67-23.52 329.01-22.75 330.98-21.36L330.98-21.36 330.98-23.54 336.23-23.54 336.23-15.97 331.23-15.97Q330.54-16.82 329.54-17.64 328.54-18.46 327.28-19.09 326.03-19.73 324.54-20.12 323.05-20.51 321.39-20.51L321.39-20.51Q319.26-20.51 317.43-19.82 315.6-19.14 314.26-17.92 312.92-16.7 312.15-15.04 311.38-13.38 311.38-11.43L311.38-11.43Q311.38-9.4 312.2-7.84 313.01-6.27 314.46-5.21 315.9-4.15 317.87-3.6 319.85-3.05 322.17-3.05L322.17-3.05Q325.93-3.05 328.82-4.25 331.72-5.44 333.99-7.93L333.99-7.93 336.57-4.98Q333.91-2.12 330.4-0.7 326.88 0.73 322.29 0.73L322.29 0.73Q318.43 0.73 315.42-0.13 312.4-1 310.33-2.59 308.25-4.17 307.17-6.4 306.08-8.62 306.08-11.33ZM332.42-13.33L332.42-14.26 337.99-14.26 337.99-22.51 338.97-22.51 338.97-13.33 332.42-13.33ZM313.14-11.43L313.14-11.43Q313.14-13.06 313.77-14.42 314.41-15.77 315.52-16.75 316.63-17.72 318.14-18.26 319.66-18.8 321.41-18.8L321.41-18.8Q322.46-18.8 323.54-18.6 324.61-18.41 325.56-18.05 326.52-17.7 327.27-17.21 328.03-16.72 328.47-16.14L328.47-16.14Q327-16.92 325.33-17.4 323.66-17.87 321.51-17.87L321.51-17.87Q319.8-17.87 318.43-17.35 317.07-16.82 316.1-15.94 315.14-15.06 314.63-13.89 314.11-12.72 314.11-11.43L314.11-11.43Q314.11-10.13 314.52-9.14 314.92-8.15 315.68-7.36 316.43-6.57 317.53-5.97 318.63-5.37 320.02-4.88L320.02-4.88Q318.41-5.03 317.13-5.57 315.85-6.1 314.97-6.95 314.09-7.79 313.61-8.92 313.14-10.06 313.14-11.43ZM309.57-1.12L309.57-1.12Q310.74-0.27 312.18 0.4 313.62 1.07 315.27 1.53 316.92 1.98 318.7 2.22 320.49 2.47 322.32 2.47L322.32 2.47Q324.51 2.47 326.63 2.11 328.74 1.76 330.59 1.1 332.45 0.44 333.99-0.5 335.52-1.44 336.6-2.61L336.6-2.61 337.31-1.98Q334.65 0.73 330.85 2.06 327.05 3.39 322.27 3.39L322.27 3.39Q320.29 3.39 318.34 3.1 316.38 2.81 314.67 2.23 312.97 1.66 311.64 0.82 310.3-0.02 309.57-1.12ZM344.92-11.33L344.92-11.33Q344.92-13.92 345.87-16.26 346.83-18.6 348.73-20.39 350.63-22.17 353.47-23.23 356.3-24.29 360.03-24.29L360.03-24.29Q363.55-24.29 366.31-23.35 369.07-22.41 371-20.63 372.92-18.85 373.94-16.27 374.95-13.7 374.95-10.4L374.95-10.4 350.27-10.4Q350.49-8.64 351.4-7.28 352.32-5.91 353.73-4.97 355.15-4.03 356.95-3.54 358.74-3.05 360.69-3.05L360.69-3.05Q362.28-3.05 363.93-3.31 365.58-3.56 367.04-4 368.51-4.44 369.65-4.99 370.8-5.54 371.41-6.13L371.41-6.13 372.34-6.13 374.63-3.64Q372.12-1.49 368.52-0.38 364.92 0.73 360.57 0.73L360.57 0.73Q356.79 0.73 353.87-0.2 350.95-1.12 348.96-2.76 346.97-4.39 345.95-6.59 344.92-8.79 344.92-11.33ZM352.61-8.69L376.61-8.69Q376.66-9.06 376.68-9.48 376.71-9.91 376.71-10.4L376.71-10.4Q376.71-12.48 376.28-14.37 375.85-16.26 375.04-17.88 374.22-19.51 373.02-20.85 371.83-22.19 370.31-23.14L370.31-23.14Q371.92-22.51 373.28-21.4 374.63-20.29 375.61-18.7 376.59-17.11 377.14-15.04 377.68-12.96 377.68-10.4L377.68-10.4Q377.68-10.21 377.67-9.91 377.66-9.62 377.64-9.25 377.61-8.89 377.58-8.51 377.54-8.13 377.49-7.76L377.49-7.76 354.42-7.76Q354.88-6.98 356.13-6.16 357.37-5.35 359.35-4.79L359.35-4.79Q358.13-4.79 357.07-5.08 356.01-5.37 355.14-5.88 354.27-6.4 353.62-7.12 352.98-7.84 352.61-8.69L352.61-8.69ZM350.41-13.45L369.31-13.45Q368.92-15.14 368.1-16.46 367.28-17.77 366.09-18.66 364.89-19.56 363.35-20.03 361.82-20.51 359.98-20.51L359.98-20.51Q358.01-20.51 356.38-19.98 354.76-19.46 353.54-18.52 352.32-17.58 351.53-16.28 350.73-14.99 350.41-13.45L350.41-13.45ZM353.76-14.5L352.64-14.5Q353.54-16.5 355.48-17.65 357.42-18.8 359.98-18.8L359.98-18.8Q361.03-18.8 362.02-18.63 363.01-18.46 363.85-18.1 364.7-17.75 365.33-17.24 365.97-16.72 366.33-16.06L366.33-16.06Q364.94-16.99 363.35-17.43 361.77-17.87 359.94-17.87L359.94-17.87Q357.81-17.87 356.2-16.99 354.59-16.11 353.76-14.5L353.76-14.5ZM347.88-1.07L347.88-1.07Q350.24 0.61 353.38 1.54 356.52 2.47 360.57 2.47L360.57 2.47Q364.53 2.47 367.98 1.56 371.43 0.66 374.22-1.2L374.22-1.2 374.88-0.49Q371.73 1.64 368.25 2.51 364.77 3.39 360.96 3.39L360.96 3.39Q356.01 3.39 352.75 2.2 349.49 1 347.88-1.07ZM412.64 0L402.26-19.9 397.09-19.9 397.09-23.56 413.35-23.56 413.35-19.9 408.32-19.9 415.79-4.57 424.38-19.9 419.43-19.9 419.43-23.56 435.69-23.56 435.69-19.9 430.85-19.9 439.08-4.37 446.33-19.9 441.28-19.9 441.28-23.56 456.81-23.56 456.81-19.9 451.63-19.9 441.74 0 435.83 0 427.46-15.89 418.5 0 412.64 0ZM437.54 1.71L442.99 1.71 452.9-18.19 458.56-18.19 458.56-22.19 459.54-22.19 459.54-17.26 453.53-17.26 443.65 2.64 437.91 2.64 437.54 1.71ZM433.98-18.19L437.45-18.19 437.45-22.19 438.42-22.19 438.42-17.26 435.59-17.26 439.89-9.06 439.37-7.98 433.98-18.19ZM416.23-8.08L411.27-18.19 415.11-18.19 415.11-22.19 416.08-22.19 416.08-17.26 412.84-17.26 416.82-9.08 416.23-8.08ZM442.47-17.26L442.47-18.19 444.53-18.19 444.09-17.26 442.47-17.26ZM420.62-17.26L420.62-18.19 422.41-18.19 421.89-17.26 420.62-17.26ZM398.53-17.26L398.53-18.19 402.14-18.19 402.63-17.26 398.53-17.26ZM414.11 1.71L419.7 1.71 427.92-12.87 428.49-11.84 420.31 2.64 414.47 2.64 414.11 1.71ZM468.2-29.64L468.2-34.52 474.19-34.52 474.19-29.64 468.2-29.64ZM469.67-27L469.67-27.93 475.94-27.93 475.94-33.15 476.92-33.15 476.92-27 469.67-27ZM463.08 0L463.08-3.66 469.67-3.66 468.94-19.41 463.08-19.41 463.08-23.56 474.19-23.56 474.19-3.66 479.8-3.66 479.8 0 463.08 0ZM475.9-5.13L475.9-22.31 476.87-22.31 476.87-5.13 475.9-5.13ZM464.54-16.77L464.54-17.7 467.91-17.7 467.91-16.77 464.54-16.77ZM464.54 1.71L481.56 1.71 481.56-2.29 482.54-2.29 482.54 2.64 464.54 2.64 464.54 1.71ZM490.44-8.74L490.44-19.41 485.07-19.41 485.07-23.56 490.44-23.56 490.44-28.49 495.69-30.69 495.69-23.56 507.83-23.56 507.83-19.41 495.69-19.41 495.69-7.76Q495.69-5.93 496.84-5.04 497.99-4.15 499.97-4.15L499.97-4.15 506.85-4.15 506.85 0 499.97 0Q497.99 0 496.25-0.43 494.52-0.85 493.23-1.87 491.93-2.88 491.19-4.55 490.44-6.23 490.44-8.74L490.44-8.74ZM497.45-25.02L497.45-29.35 498.43-29.79 498.43-25.02 497.45-25.02ZM497.4-6.76L497.4-17.97 509.58-17.97 509.58-22.46 510.56-22.46 510.56-17.04 498.38-17.04 498.38-5.79Q497.55-6.01 497.4-6.76L497.4-6.76ZM486.54-16.77L486.54-17.7 489.47-17.7 489.47-16.77 486.54-16.77ZM490.3-2.1L490.3-2.1Q491.08-1 492.04-0.27 493.01 0.46 494.2 0.9 495.4 1.34 496.82 1.53 498.23 1.71 499.92 1.71L499.92 1.71 508.61 1.71 508.61-3.05 509.58-3.05 509.58 2.64 499.79 2.64Q497.91 2.64 496.38 2.39 494.84 2.15 493.65 1.6 492.47 1.05 491.63 0.13 490.79-0.78 490.3-2.1ZM515.9 0L515.9-3.66 521.28-3.66 521.28-30.15 515.9-30.15 515.9-34.06 526.52-34.06 526.52-19.87Q527.28-20.8 528.34-21.61 529.41-22.41 530.72-23.01 532.04-23.61 533.58-23.95 535.12-24.29 536.8-24.29L536.8-24.29Q539.34-24.29 541.42-23.57 543.49-22.85 544.96-21.35 546.42-19.85 547.22-17.57 548.01-15.28 548.01-12.16L548.01-12.16 548.01-3.66 553.38-3.66 553.38 0 538.61 0 538.61-3.66 542.76-3.66 542.76-10.08Q542.76-12.06 542.58-13.61 542.39-15.16 542.05-16.04L542.05-16.04Q541.61-17.16 540.94-17.94 540.27-18.73 539.43-19.21 538.59-19.7 537.58-19.92 536.58-20.14 535.46-20.14L535.46-20.14Q534.26-20.14 532.98-19.7 531.7-19.26 530.49-18.47 529.28-17.68 528.25-16.6 527.21-15.53 526.52-14.28L526.52-14.28 526.52-3.66 530.68-3.66 530.68 0 515.9 0ZM528.23-23.24L528.23-32.81 529.21-32.81 529.21-23.88Q528.99-23.78 528.71-23.61 528.43-23.44 528.23-23.24L528.23-23.24ZM517.37-27.51L517.37-28.44 520.25-28.44 520.25-27.51 517.37-27.51ZM549.77-5.13L549.77-11.99Q549.77-14.14 549.44-15.98 549.11-17.82 548.45-19.3 547.79-20.78 546.83-21.85 545.86-22.92 544.59-23.56L544.59-23.56Q546.25-23.14 547.42-22.16 548.6-21.17 549.33-19.65 550.06-18.14 550.4-16.16 550.74-14.18 550.74-11.82L550.74-11.82 550.74-5.13 549.77-5.13ZM528.28-5.13L528.28-13.67Q528.89-14.75 529.74-15.63 530.58-16.5 531.55-17.13 532.53-17.75 533.59-18.09 534.65-18.43 535.73-18.43L535.73-18.43Q537.41-18.43 538.5-17.8 539.59-17.16 540.07-16.19L540.07-16.19Q539.32-16.75 538.27-17.13 537.22-17.5 535.68-17.5L535.68-17.5Q534.73-17.5 533.75-17.16 532.77-16.82 531.92-16.26 531.07-15.7 530.37-14.97 529.67-14.23 529.26-13.45L529.26-13.45 529.26-5.13 528.28-5.13ZM540.07 1.71L555.14 1.71 555.14-2.29 556.11-2.29 556.11 2.64 540.07 2.64 540.07 1.71ZM517.37 1.71L532.43 1.71 532.43-2.29 533.41-2.29 533.41 2.64 517.37 2.64 517.37 1.71ZM576.01-11.45L576.01-11.45Q576.01-13.72 576.96-15.93 577.91-18.14 579.78-19.89 581.65-21.63 584.41-22.72 587.16-23.8 590.75-23.8L590.75-23.8Q591.9-23.8 593.21-23.63 594.51-23.46 595.82-23.07 597.13-22.68 598.37-22.03 599.62-21.39 600.64-20.46L600.64-20.46 600.64-30.15 595.27-30.15 595.27-34.06 605.89-34.06 605.89-3.66 610.04-3.66 610.04 0 600.64 0 600.64-3.1Q598.74-1.25 596.05-0.26 593.37 0.73 590.22 0.73L590.22 0.73Q587.21 0.73 584.63-0.06 582.04-0.85 580.12-2.39 578.2-3.93 577.11-6.2 576.01-8.47 576.01-11.45ZM607.65-5.13L607.65-32.81 608.62-32.81 608.62-5.13 607.65-5.13ZM596.73-27.51L596.73-28.44 599.62-28.44 599.62-27.51 596.73-27.51ZM581.31-11.65L581.31-11.65Q581.31-9.67 581.95-8.08 582.6-6.49 583.81-5.37 585.02-4.25 586.74-3.64 588.46-3.03 590.63-3.03L590.63-3.03Q591.78-3.03 592.96-3.26 594.15-3.49 595.26-3.97 596.37-4.44 597.36-5.16 598.35-5.88 599.07-6.87 599.79-7.86 600.21-9.13 600.64-10.4 600.64-11.96L600.64-11.96Q600.64-13.7 599.84-15.17 599.03-16.65 597.67-17.72 596.32-18.8 594.51-19.41 592.71-20.02 590.7-20.02L590.7-20.02Q588.75-20.02 587.04-19.41 585.33-18.8 584.05-17.7 582.77-16.6 582.04-15.05 581.31-13.5 581.31-11.65ZM583.01-11.65L583.01-11.65Q583.01-13.04 583.56-14.23 584.11-15.43 585.11-16.33 586.11-17.24 587.54-17.75 588.97-18.26 590.7-18.26L590.7-18.26Q593.19-18.26 594.9-17.53 596.61-16.8 597.22-15.7L597.22-15.7Q595.9-16.55 594.26-16.94 592.61-17.33 590.7-17.33L590.7-17.33Q589.17-17.33 587.93-16.88 586.7-16.43 585.83-15.65 584.97-14.87 584.49-13.81 584.02-12.74 584.02-11.55L584.02-11.55Q584.02-6.93 589.22-4.76L589.22-4.76Q587.73-4.93 586.58-5.54 585.43-6.15 584.64-7.07 583.84-7.98 583.43-9.16 583.01-10.33 583.01-11.65ZM602.11 1.71L611.8 1.71 611.8-2.29 612.77-2.29 612.77 2.64 602.11 2.64 602.11 1.71ZM579.16-1.05L579.16-1.05Q580.16-0.24 581.43 0.4 582.7 1.05 584.14 1.5 585.58 1.95 587.13 2.2 588.68 2.44 590.24 2.44L590.24 2.44Q592.95 2.44 595.31 1.77 597.66 1.1 599.49-0.1L599.49-0.1 599.49 1.03Q597.66 2.12 595.26 2.75 592.85 3.37 590.27 3.37L590.27 3.37Q586.31 3.37 583.5 2.26 580.69 1.15 579.16-1.05ZM622.66-29.64L622.66-34.52 628.64-34.52 628.64-29.64 622.66-29.64ZM624.12-27L624.12-27.93 630.4-27.93 630.4-33.15 631.38-33.15 631.38-27 624.12-27ZM617.53 0L617.53-3.66 624.12-3.66 623.39-19.41 617.53-19.41 617.53-23.56 628.64-23.56 628.64-3.66 634.26-3.66 634.26 0 617.53 0ZM630.35-5.13L630.35-22.31 631.33-22.31 631.33-5.13 630.35-5.13ZM619-16.77L619-17.7 622.37-17.7 622.37-16.77 619-16.77ZM619 1.71L636.01 1.71 636.01-2.29 636.99-2.29 636.99 2.64 619 2.64 619 1.71ZM641.46 0L641.46-6.71 646.49-6.71Q647.14-5.71 648.37-4.96 649.59-4.2 651.16-3.71 652.74-3.22 654.62-2.98 656.5-2.73 658.47-2.73L658.47-2.73Q660.11-2.73 661.26-2.98 662.4-3.22 663.11-3.66 663.82-4.1 664.14-4.69 664.45-5.27 664.45-5.98L664.45-5.98Q664.45-7.47 662.07-8.53 659.69-9.59 654.54-10.16L654.54-10.16Q651.12-10.52 648.83-11.17 646.53-11.82 645.13-12.74 643.73-13.67 643.13-14.87 642.53-16.06 642.53-17.5L642.53-17.5Q642.53-18.75 643.31-19.97 644.09-21.19 645.69-22.16 647.29-23.12 649.7-23.71 652.1-24.29 655.35-24.29L655.35-24.29Q656.4-24.29 657.5-24.15 658.6-24 659.64-23.72 660.69-23.44 661.65-23.05 662.6-22.66 663.36-22.17L663.36-22.17 663.36-23.54 668.6-23.54 668.6-16.94 663.36-16.94Q663.09-17.7 662.23-18.38 661.38-19.07 660.21-19.58 659.03-20.09 657.72-20.4 656.4-20.7 655.23-20.7L655.23-20.7Q653.69-20.7 652.32-20.48 650.95-20.26 649.95-19.86 648.95-19.46 648.37-18.9 647.78-18.33 647.78-17.65L647.78-17.65Q647.78-17.02 648.23-16.5 648.68-15.99 649.74-15.55 650.81-15.11 652.58-14.73 654.35-14.36 656.98-14.04L656.98-14.04Q660.5-13.6 662.92-12.92 665.33-12.23 666.85-11.24 668.36-10.25 669.03-8.94 669.7-7.62 669.7-5.91L669.7-5.91Q669.7-4.66 668.95-3.48 668.19-2.29 666.74-1.35 665.28-0.42 663.17 0.16 661.06 0.73 658.33 0.73L658.33 0.73Q656.57 0.73 655.03 0.6 653.49 0.46 652.08 0.15 650.66-0.17 649.34-0.66 648.02-1.15 646.71-1.86L646.71-1.86 646.71 0 641.46 0ZM664.55-14.31L664.55-15.23 670.36-15.23 670.36-22.51 671.34-22.51 671.34-14.31 664.55-14.31ZM649.56-17.65L649.56-17.65Q649.64-17.97 650.15-18.24 650.66-18.51 651.45-18.71 652.25-18.92 653.21-19.04 654.18-19.17 655.15-19.17L655.15-19.17Q655.98-19.17 656.87-19.04 657.76-18.92 658.56-18.7 659.35-18.48 660-18.15 660.65-17.82 661.01-17.41L661.01-17.41Q660.45-17.65 659.67-17.81 658.89-17.97 658.07-18.07 657.25-18.16 656.47-18.21 655.69-18.26 655.15-18.26L655.15-18.26Q653.18-18.26 651.72-18.07 650.27-17.87 649.56-17.65ZM642.87-12.82L642.87-12.82Q643.56-11.94 644.51-11.25 645.46-10.57 646.8-10.03 648.15-9.5 649.93-9.12 651.71-8.74 654.03-8.47L654.03-8.47Q656.15-8.23 657.72-7.95 659.28-7.67 660.33-7.32 661.38-6.98 661.96-6.56 662.55-6.13 662.72-5.59L662.72-5.59Q662.21-5.93 661.55-6.19 660.89-6.45 659.86-6.67 658.84-6.88 657.34-7.1 655.84-7.32 653.61-7.59L653.61-7.59Q649.02-8.13 646.36-9.34 643.7-10.55 642.87-12.82ZM642.65 1.71L648.46 1.71 648.46 0.68Q649.15 1 650.2 1.31 651.25 1.61 652.55 1.87 653.86 2.12 655.32 2.28 656.79 2.44 658.3 2.44L658.3 2.44Q661.33 2.44 663.77 1.77 666.21 1.1 667.92-0.04 669.63-1.17 670.55-2.67 671.46-4.17 671.46-5.83L671.46-5.83Q671.46-6.49 671.39-7.06 671.31-7.62 671.13-8.13 670.95-8.64 670.64-9.16 670.34-9.67 669.87-10.23L669.87-10.23Q672.44-8.72 672.44-5.83L672.44-5.83Q672.44-3.88 671.44-2.2 670.44-0.51 668.59 0.72 666.75 1.95 664.14 2.66 661.52 3.37 658.28 3.37L658.28 3.37Q657.08 3.37 655.86 3.26 654.64 3.15 653.49 2.95 652.35 2.76 651.32 2.49 650.29 2.22 649.49 1.88L649.49 1.88 649.49 2.69 642.65 2.69 642.65 1.71ZM682.74-8.74L682.74-19.41 677.37-19.41 677.37-23.56 682.74-23.56 682.74-28.49 687.99-30.69 687.99-23.56 700.12-23.56 700.12-19.41 687.99-19.41 687.99-7.76Q687.99-5.93 689.13-5.04 690.28-4.15 692.26-4.15L692.26-4.15 699.14-4.15 699.14 0 692.26 0Q690.28 0 688.55-0.43 686.82-0.85 685.52-1.87 684.23-2.88 683.48-4.55 682.74-6.23 682.74-8.74L682.74-8.74ZM689.74-25.02L689.74-29.35 690.72-29.79 690.72-25.02 689.74-25.02ZM689.7-6.76L689.7-17.97 701.88-17.97 701.88-22.46 702.86-22.46 702.86-17.04 690.67-17.04 690.67-5.79Q689.84-6.01 689.7-6.76L689.7-6.76ZM678.83-16.77L678.83-17.7 681.76-17.7 681.76-16.77 678.83-16.77ZM682.59-2.1L682.59-2.1Q683.37-1 684.34-0.27 685.3 0.46 686.5 0.9 687.69 1.34 689.11 1.53 690.53 1.71 692.21 1.71L692.21 1.71 700.9 1.71 700.9-3.05 701.88-3.05 701.88 2.64 692.09 2.64Q690.21 2.64 688.67 2.39 687.13 2.15 685.95 1.6 684.76 1.05 683.92 0.13 683.08-0.78 682.59-2.1ZM708.81 0L708.81-3.66 714.18-3.66 714.18-19.41 708.81-19.41 708.81-23.56 719.43-23.56 719.43-19.48Q720.19-20.46 721.25-21.34 722.31-22.22 723.65-22.88 725-23.54 726.58-23.91 728.17-24.29 729.98-24.29L729.98-24.29Q730.51-24.29 731.32-24.26 732.13-24.22 732.86-24.1L732.86-24.1 732.86-19.31Q732-19.51 731.17-19.58 730.34-19.65 729.56-19.65L729.56-19.65Q727.61-19.65 725.86-19.03 724.12-18.41 722.75-17.22 721.38-16.04 720.5-14.33 719.63-12.62 719.43-10.42L719.43-10.42 719.43-3.66 728.22-3.66 728.22 0 708.81 0ZM721.14-5.13L721.14-8.23Q721.14-10.52 721.72-12.33 722.31-14.14 723.4-15.38 724.48-16.63 726.05-17.29 727.61-17.94 729.56-17.94L729.56-17.94Q729.98-17.94 730.61-17.88 731.25-17.82 731.94-17.7 732.64-17.58 733.35-17.4 734.05-17.21 734.62-16.97L734.62-16.97 734.62-22.73 735.59-22.73 735.59-15.75Q734.91-16.04 734.11-16.27 733.32-16.5 732.5-16.67 731.69-16.85 730.93-16.93 730.17-17.02 729.56-17.02L729.56-17.02Q727.78-17.02 726.4-16.43 725.02-15.84 724.07-14.75 723.12-13.65 722.62-12.06 722.12-10.47 722.12-8.47L722.12-8.47 722.12-5.13 721.14-5.13ZM710.27-16.77L710.27-17.7 713.16-17.7 713.16-16.77 710.27-16.77ZM710.27 1.71L729.98 1.71 729.98-2.29 730.95-2.29 730.95 2.64 710.27 2.64 710.27 1.71ZM745.48-29.64L745.48-34.52 751.46-34.52 751.46-29.64 745.48-29.64ZM746.94-27L746.94-27.93 753.22-27.93 753.22-33.15 754.19-33.15 754.19-27 746.94-27ZM740.35 0L740.35-3.66 746.94-3.66 746.21-19.41 740.35-19.41 740.35-23.56 751.46-23.56 751.46-3.66 757.07-3.66 757.07 0 740.35 0ZM753.17-5.13L753.17-22.31 754.14-22.31 754.14-5.13 753.17-5.13ZM741.82-16.77L741.82-17.7 745.18-17.7 745.18-16.77 741.82-16.77ZM741.82 1.71L758.83 1.71 758.83-2.29 759.81-2.29 759.81 2.64 741.82 2.64 741.82 1.71ZM764.57 0L764.57-3.66 768.72-3.66 768.72-30.15 763.35-30.15 763.35-34.06 773.97-34.06 773.97-19.87Q775.75-21.7 778.3-22.75 780.85-23.8 783.85-23.8L783.85-23.8Q787.3-23.8 789.94-22.79 792.59-21.78 794.41-20.1 796.23-18.43 797.17-16.28 798.11-14.14 798.11-11.84L798.11-11.84Q798.11-9.06 797.12-6.75 796.13-4.44 794.29-2.78 792.45-1.12 789.85-0.2 787.25 0.73 784.02 0.73L784.02 0.73Q780.92 0.73 778.34-0.21 775.75-1.15 773.97-2.98L773.97-2.98 773.97 0 764.57 0ZM775.75-23.44L775.75-32.81 776.72-32.81 776.72-23.93 775.75-23.44ZM764.81-27.51L764.81-28.44 767.69-28.44 767.69-27.51 764.81-27.51ZM766.03 1.71L775.72 1.71 775.72 0.44Q776.6 0.9 777.63 1.27 778.65 1.64 779.74 1.89 780.83 2.15 781.92 2.29 783.02 2.44 784.02 2.44L784.02 2.44Q787.47 2.44 790.37 1.46 793.28 0.49 795.39-1.34 797.5-3.17 798.69-5.82 799.87-8.47 799.87-11.84L799.87-11.84Q799.87-13.53 799.49-14.97 799.11-16.41 798.49-17.61 797.87-18.82 797.06-19.8 796.26-20.78 795.4-21.56L795.4-21.56Q796.72-20.87 797.73-19.82 798.75-18.77 799.44-17.49 800.14-16.21 800.5-14.76 800.87-13.31 800.87-11.84L800.87-11.84Q800.87-8.35 799.65-5.53 798.43-2.71 796.22-0.73 794.01 1.25 790.9 2.31 787.78 3.37 784 3.37L784 3.37Q783.17 3.37 782.19 3.26 781.22 3.15 780.22 2.93 779.21 2.71 778.28 2.4 777.34 2.1 776.58 1.71L776.58 1.71 776.58 2.64 766.03 2.64 766.03 1.71ZM773.97-11.35L773.97-11.35Q773.97-9.11 774.84-7.53 775.72-5.96 777.15-4.96 778.58-3.96 780.41-3.49 782.24-3.03 784.15-3.03L784.15-3.03Q786.12-3.03 787.72-3.64 789.32-4.25 790.46-5.37 791.59-6.49 792.2-8.09 792.81-9.69 792.81-11.65L792.81-11.65Q792.81-13.5 792.09-15.05 791.37-16.6 790.13-17.7 788.88-18.8 787.19-19.41 785.49-20.02 783.54-20.02L783.54-20.02Q781.51-20.02 779.76-19.41 778.02-18.8 776.74-17.66 775.46-16.53 774.71-14.93 773.97-13.33 773.97-11.35ZM775.72-11.35L775.72-11.35Q775.72-12.82 776.27-14.09 776.82-15.36 777.84-16.3 778.85-17.24 780.29-17.77 781.73-18.31 783.54-18.31L783.54-18.31Q785.46-18.31 787-17.76 788.54-17.21 789.47-15.97L789.47-15.97Q787.86-16.75 786.49-17.07 785.12-17.38 783.54-17.38L783.54-17.38Q781.95-17.38 780.69-16.91 779.43-16.43 778.56-15.6 777.68-14.77 777.21-13.68 776.75-12.6 776.75-11.35L776.75-11.35Q776.75-9.38 777.87-7.76 779-6.15 781.51-4.98L781.51-4.98Q780.17-5.15 779.09-5.73 778.02-6.3 777.27-7.17 776.53-8.03 776.13-9.11 775.72-10.18 775.72-11.35ZM809.36-5.47L809.36-5.47Q808.88-6.71 808.64-8.18 808.41-9.64 808.41-11.4L808.41-11.4 808.41-19.41 804.26-19.41 804.26-23.56 813.66-23.56 813.66-13.48Q813.66-11.5 813.84-9.95 814.03-8.4 814.37-7.52L814.37-7.52Q814.81-6.4 815.52-5.62 816.22-4.83 817.12-4.35 818.01-3.86 819.04-3.64 820.08-3.42 821.2-3.42L821.2-3.42Q822.4-3.42 823.68-3.86 824.96-4.3 826.16-5.08 827.36-5.86 828.39-6.93 829.43-8.01 830.14-9.25L830.14-9.25 830.14-19.41 824.77-19.41 824.77-23.56 835.39-23.56 835.39-3.66 839.54-3.66 839.54 0 830.14 0 830.14-3.71Q829.36-2.76 828.25-1.95 827.14-1.15 825.78-0.55 824.43 0.05 822.86 0.39 821.3 0.73 819.62 0.73L819.62 0.73Q815.98 0.73 813.31-0.79 810.63-2.32 809.36-5.47ZM837.1-5.13L837.1-22.31 838.07-22.31 838.07-5.13 837.1-5.13ZM815.42-12.01L815.42-22.31 816.4-22.31 816.4-12.28Q816.4-10.38 816.76-9.11 817.13-7.84 817.74-7.03 818.35-6.23 819.13-5.79 819.91-5.35 820.74-5.1L820.74-5.1Q818.18-5.13 816.8-6.8 815.42-8.47 815.42-12.01L815.42-12.01ZM826.23-16.77L826.23-17.7 829.11-17.7 829.11-16.77 826.23-16.77ZM805.73-16.77L805.73-17.7 807.39-17.7 807.39-16.77 805.73-16.77ZM831.61 1.71L841.3 1.71 841.3-2.29 842.27-2.29 842.27 2.64 831.61 2.64 831.61 1.71ZM809.63-1.64L809.63-1.64Q811.54 0.42 813.93 1.43 816.32 2.44 819.64 2.44L819.64 2.44Q822.6 2.44 824.93 1.67 827.26 0.9 829.16-0.42L829.16-0.42 829.16 0.71Q827.02 2.1 824.7 2.73 822.38 3.37 819.67 3.37L819.67 3.37Q815.98 3.37 813.39 2.09 810.8 0.81 809.63-1.64ZM852.01-8.74L852.01-19.41 846.64-19.41 846.64-23.56 852.01-23.56 852.01-28.49 857.26-30.69 857.26-23.56 869.4-23.56 869.4-19.41 857.26-19.41 857.26-7.76Q857.26-5.93 858.41-5.04 859.56-4.15 861.53-4.15L861.53-4.15 868.42-4.15 868.42 0 861.53 0Q859.56 0 857.82-0.43 856.09-0.85 854.8-1.87 853.5-2.88 852.76-4.55 852.01-6.23 852.01-8.74L852.01-8.74ZM859.02-25.02L859.02-29.35 860-29.79 860-25.02 859.02-25.02ZM858.97-6.76L858.97-17.97 871.15-17.97 871.15-22.46 872.13-22.46 872.13-17.04 859.95-17.04 859.95-5.79Q859.12-6.01 858.97-6.76L858.97-6.76ZM848.11-16.77L848.11-17.7 851.04-17.7 851.04-16.77 848.11-16.77ZM851.87-2.1L851.87-2.1Q852.65-1 853.61-0.27 854.58 0.46 855.77 0.9 856.97 1.34 858.38 1.53 859.8 1.71 861.49 1.71L861.49 1.71 870.18 1.71 870.18-3.05 871.15-3.05 871.15 2.64 861.36 2.64Q859.48 2.64 857.95 2.39 856.41 2.15 855.22 1.6 854.04 1.05 853.2 0.13 852.35-0.78 851.87-2.1ZM877.35-11.33L877.35-11.33Q877.35-13.92 878.3-16.26 879.26-18.6 881.16-20.39 883.06-22.17 885.9-23.23 888.73-24.29 892.46-24.29L892.46-24.29Q895.98-24.29 898.74-23.35 901.5-22.41 903.43-20.63 905.35-18.85 906.37-16.27 907.38-13.7 907.38-10.4L907.38-10.4 882.7-10.4Q882.92-8.64 883.83-7.28 884.75-5.91 886.17-4.97 887.58-4.03 889.38-3.54 891.17-3.05 893.12-3.05L893.12-3.05Q894.71-3.05 896.36-3.31 898.01-3.56 899.47-4 900.94-4.44 902.08-4.99 903.23-5.54 903.84-6.13L903.84-6.13 904.77-6.13 907.06-3.64Q904.55-1.49 900.95-0.38 897.35 0.73 893 0.73L893 0.73Q889.22 0.73 886.3-0.2 883.38-1.12 881.39-2.76 879.4-4.39 878.38-6.59 877.35-8.79 877.35-11.33ZM885.04-8.69L909.04-8.69Q909.09-9.06 909.11-9.48 909.14-9.91 909.14-10.4L909.14-10.4Q909.14-12.48 908.71-14.37 908.28-16.26 907.47-17.88 906.65-19.51 905.45-20.85 904.26-22.19 902.74-23.14L902.74-23.14Q904.35-22.51 905.71-21.4 907.06-20.29 908.04-18.7 909.02-17.11 909.57-15.04 910.12-12.96 910.12-10.4L910.12-10.4Q910.12-10.21 910.1-9.91 910.09-9.62 910.07-9.25 910.04-8.89 910.01-8.51 909.97-8.13 909.92-7.76L909.92-7.76 886.85-7.76Q887.31-6.98 888.56-6.16 889.8-5.35 891.78-4.79L891.78-4.79Q890.56-4.79 889.5-5.08 888.44-5.37 887.57-5.88 886.7-6.4 886.06-7.12 885.41-7.84 885.04-8.69L885.04-8.69ZM882.85-13.45L901.74-13.45Q901.35-15.14 900.53-16.46 899.72-17.77 898.52-18.66 897.32-19.56 895.78-20.03 894.25-20.51 892.42-20.51L892.42-20.51Q890.44-20.51 888.81-19.98 887.19-19.46 885.97-18.52 884.75-17.58 883.96-16.28 883.16-14.99 882.85-13.45L882.85-13.45ZM886.19-14.5L885.07-14.5Q885.97-16.5 887.91-17.65 889.85-18.8 892.42-18.8L892.42-18.8Q893.47-18.8 894.45-18.63 895.44-18.46 896.29-18.1 897.13-17.75 897.76-17.24 898.4-16.72 898.76-16.06L898.76-16.06Q897.37-16.99 895.78-17.43 894.2-17.87 892.37-17.87L892.37-17.87Q890.24-17.87 888.63-16.99 887.02-16.11 886.19-14.5L886.19-14.5ZM880.31-1.07L880.31-1.07Q882.67 0.61 885.81 1.54 888.95 2.47 893 2.47L893 2.47Q896.96 2.47 900.41 1.56 903.87 0.66 906.65-1.2L906.65-1.2 907.31-0.49Q904.16 1.64 900.68 2.51 897.2 3.39 893.39 3.39L893.39 3.39Q888.44 3.39 885.18 2.2 881.92 1 880.31-1.07ZM915.48-11.45L915.48-11.45Q915.48-13.72 916.44-15.93 917.39-18.14 919.26-19.89 921.12-21.63 923.88-22.72 926.64-23.8 930.23-23.8L930.23-23.8Q931.38-23.8 932.68-23.63 933.99-23.46 935.3-23.07 936.6-22.68 937.85-22.03 939.09-21.39 940.12-20.46L940.12-20.46 940.12-30.15 934.75-30.15 934.75-34.06 945.37-34.06 945.37-3.66 949.52-3.66 949.52 0 940.12 0 940.12-3.1Q938.21-1.25 935.53-0.26 932.84 0.73 929.69 0.73L929.69 0.73Q926.69 0.73 924.1-0.06 921.51-0.85 919.6-2.39 917.68-3.93 916.58-6.2 915.48-8.47 915.48-11.45ZM947.12-5.13L947.12-32.81 948.1-32.81 948.1-5.13 947.12-5.13ZM936.21-27.51L936.21-28.44 939.09-28.44 939.09-27.51 936.21-27.51ZM920.78-11.65L920.78-11.65Q920.78-9.67 921.43-8.08 922.08-6.49 923.28-5.37 924.49-4.25 926.21-3.64 927.94-3.03 930.11-3.03L930.11-3.03Q931.26-3.03 932.44-3.26 933.62-3.49 934.73-3.97 935.85-4.44 936.83-5.16 937.82-5.88 938.54-6.87 939.26-7.86 939.69-9.13 940.12-10.4 940.12-11.96L940.12-11.96Q940.12-13.7 939.31-15.17 938.51-16.65 937.15-17.72 935.8-18.8 933.99-19.41 932.18-20.02 930.18-20.02L930.18-20.02Q928.23-20.02 926.52-19.41 924.81-18.8 923.53-17.7 922.25-16.6 921.51-15.05 920.78-13.5 920.78-11.65ZM922.49-11.65L922.49-11.65Q922.49-13.04 923.04-14.23 923.59-15.43 924.59-16.33 925.59-17.24 927.02-17.75 928.45-18.26 930.18-18.26L930.18-18.26Q932.67-18.26 934.38-17.53 936.09-16.8 936.7-15.7L936.7-15.7Q935.38-16.55 933.73-16.94 932.09-17.33 930.18-17.33L930.18-17.33Q928.64-17.33 927.41-16.88 926.18-16.43 925.31-15.65 924.44-14.87 923.97-13.81 923.49-12.74 923.49-11.55L923.49-11.55Q923.49-6.93 928.69-4.76L928.69-4.76Q927.2-4.93 926.06-5.54 924.91-6.15 924.11-7.07 923.32-7.98 922.91-9.16 922.49-10.33 922.49-11.65ZM941.58 1.71L951.28 1.71 951.28-2.29 952.25-2.29 952.25 2.64 941.58 2.64 941.58 1.71ZM918.63-1.05L918.63-1.05Q919.63-0.24 920.9 0.4 922.17 1.05 923.61 1.5 925.05 1.95 926.6 2.2 928.16 2.44 929.72 2.44L929.72 2.44Q932.43 2.44 934.78 1.77 937.14 1.1 938.97-0.1L938.97-0.1 938.97 1.03Q937.14 2.12 934.73 2.75 932.33 3.37 929.74 3.37L929.74 3.37Q925.79 3.37 922.98 2.26 920.17 1.15 918.63-1.05ZM972.63-11.33L972.63-11.33Q972.63-13.92 973.74-16.26 974.85-18.6 976.87-20.39 978.88-22.17 981.73-23.23 984.57-24.29 988.01-24.29L988.01-24.29Q990.89-24.29 993.23-23.52 995.56-22.75 997.53-21.36L997.53-21.36 997.53-23.54 1002.78-23.54 1002.78-15.97 997.78-15.97Q997.1-16.82 996.09-17.64 995.09-18.46 993.84-19.09 992.58-19.73 991.09-20.12 989.6-20.51 987.94-20.51L987.94-20.51Q985.82-20.51 983.99-19.82 982.15-19.14 980.81-17.92 979.47-16.7 978.7-15.04 977.93-13.38 977.93-11.43L977.93-11.43Q977.93-9.4 978.75-7.84 979.57-6.27 981.01-5.21 982.45-4.15 984.42-3.6 986.4-3.05 988.72-3.05L988.72-3.05Q992.48-3.05 995.37-4.25 998.27-5.44 1000.54-7.93L1000.54-7.93 1003.13-4.98Q1000.46-2.12 996.95-0.7 993.43 0.73 988.84 0.73L988.84 0.73Q984.99 0.73 981.97-0.13 978.96-1 976.88-2.59 974.81-4.17 973.72-6.4 972.63-8.62 972.63-11.33ZM998.98-13.33L998.98-14.26 1004.54-14.26 1004.54-22.51 1005.52-22.51 1005.52-13.33 998.98-13.33ZM979.69-11.43L979.69-11.43Q979.69-13.06 980.32-14.42 980.96-15.77 982.07-16.75 983.18-17.72 984.69-18.26 986.21-18.8 987.96-18.8L987.96-18.8Q989.01-18.8 990.09-18.6 991.16-18.41 992.11-18.05 993.07-17.7 993.82-17.21 994.58-16.72 995.02-16.14L995.02-16.14Q993.56-16.92 991.88-17.4 990.21-17.87 988.06-17.87L988.06-17.87Q986.35-17.87 984.99-17.35 983.62-16.82 982.65-15.94 981.69-15.06 981.18-13.89 980.66-12.72 980.66-11.43L980.66-11.43Q980.66-10.13 981.07-9.14 981.47-8.15 982.23-7.36 982.98-6.57 984.08-5.97 985.18-5.37 986.57-4.88L986.57-4.88Q984.96-5.03 983.68-5.57 982.4-6.1 981.52-6.95 980.64-7.79 980.16-8.92 979.69-10.06 979.69-11.43ZM976.12-1.12L976.12-1.12Q977.3-0.27 978.74 0.4 980.18 1.07 981.82 1.53 983.47 1.98 985.25 2.22 987.04 2.47 988.87 2.47L988.87 2.47Q991.07 2.47 993.18 2.11 995.29 1.76 997.14 1.1 999 0.44 1000.54-0.5 1002.08-1.44 1003.15-2.61L1003.15-2.61 1003.86-1.98Q1001.2 0.73 997.4 2.06 993.6 3.39 988.82 3.39L988.82 3.39Q986.84 3.39 984.89 3.1 982.94 2.81 981.23 2.23 979.52 1.66 978.19 0.82 976.86-0.02 976.12-1.12ZM1011.47-11.4L1011.47-11.4Q1011.47-14.06 1012.62-16.42 1013.77-18.77 1015.83-20.52 1017.89-22.27 1020.77-23.28 1023.66-24.29 1027.1-24.29L1027.1-24.29Q1030.71-24.29 1033.56-23.33 1036.4-22.36 1038.36-20.65 1040.33-18.95 1041.37-16.6 1042.41-14.26 1042.41-11.5L1042.41-11.5Q1042.41-8.84 1041.27-6.59 1040.13-4.35 1038.05-2.72 1035.96-1.1 1033.04-0.18 1030.13 0.73 1026.54 0.73L1026.54 0.73Q1023.14 0.73 1020.37-0.28 1017.6-1.29 1015.62-2.98 1013.65-4.66 1012.56-6.85 1011.47-9.03 1011.47-11.4ZM1015.31-1.12L1015.31-1.12Q1017.67 0.59 1020.54 1.51 1023.41 2.44 1027.02 2.44L1027.02 2.44Q1030.39 2.44 1033.49 1.53 1036.59 0.61 1038.96-1.17 1041.33-2.95 1042.75-5.55 1044.16-8.15 1044.16-11.5L1044.16-11.5Q1044.16-13.13 1043.71-14.81 1043.26-16.48 1042.44-18.02 1041.62-19.56 1040.45-20.89 1039.28-22.22 1037.84-23.14L1037.84-23.14Q1039.48-22.41 1040.83-21.22 1042.19-20.02 1043.14-18.49 1044.09-16.97 1044.61-15.19 1045.14-13.4 1045.14-11.5L1045.14-11.5Q1045.14-9.11 1044.46-7.07 1043.77-5.03 1042.56-3.38 1041.36-1.73 1039.68-0.46 1038.01 0.81 1036.01 1.65 1034.01 2.49 1031.75 2.93 1029.49 3.37 1027.15 3.37L1027.15 3.37Q1025.19 3.37 1023.41 3.06 1021.63 2.76 1020.1 2.19 1018.58 1.61 1017.36 0.78 1016.14-0.05 1015.31-1.12ZM1016.89-11.5L1016.89-11.5Q1016.89-9.62 1017.61-8.07 1018.33-6.52 1019.65-5.41 1020.97-4.3 1022.81-3.69 1024.66-3.08 1026.9-3.08L1026.9-3.08Q1029.17-3.08 1031.03-3.7 1032.88-4.32 1034.23-5.43 1035.57-6.54 1036.3-8.09 1037.03-9.64 1037.03-11.5L1037.03-11.5Q1037.03-13.33 1036.3-14.95 1035.57-16.58 1034.25-17.81 1032.93-19.04 1031.09-19.76 1029.25-20.48 1027.02-20.48L1027.02-20.48Q1024.71-20.48 1022.84-19.79 1020.97-19.09 1019.65-17.88 1018.33-16.67 1017.61-15.04 1016.89-13.4 1016.89-11.5ZM1018.6-11.4L1018.6-11.4Q1018.6-12.94 1019.21-14.29 1019.82-15.65 1020.93-16.64 1022.04-17.63 1023.59-18.2 1025.14-18.77 1027.02-18.77L1027.02-18.77Q1028.22-18.77 1029.34-18.52 1030.47-18.26 1031.42-17.77 1032.37-17.29 1033.1-16.59 1033.84-15.89 1034.28-15.01L1034.28-15.01Q1032.66-16.48 1030.92-17.16 1029.17-17.85 1026.98-17.85L1026.98-17.85Q1025.39-17.85 1024.05-17.33 1022.7-16.82 1021.7-15.94 1020.7-15.06 1020.14-13.89 1019.58-12.72 1019.58-11.4L1019.58-11.4Q1019.58-10.3 1019.85-9.35 1020.12-8.4 1020.76-7.58 1021.41-6.76 1022.48-6.1 1023.56-5.44 1025.17-4.93L1025.17-4.93Q1023.7-5.03 1022.5-5.55 1021.29-6.08 1020.42-6.93 1019.55-7.79 1019.08-8.94 1018.6-10.08 1018.6-11.4ZM1051.78 0L1051.78-3.66 1057.15-3.66 1057.15-19.41 1051.78-19.41 1051.78-23.56 1062.4-23.56 1062.4-19.9Q1063.13-20.83 1064.16-21.63 1065.18-22.44 1066.46-23.02 1067.74-23.61 1069.25-23.95 1070.75-24.29 1072.43-24.29L1072.43-24.29Q1075.87-24.29 1078.33-22.95 1080.78-21.61 1082.12-18.8L1082.12-18.8Q1083.03-20 1084.24-21.01 1085.44-22.02 1086.89-22.75 1088.33-23.49 1089.97-23.89 1091.62-24.29 1093.43-24.29L1093.43-24.29Q1095.94-24.29 1097.97-23.56 1100-22.83 1101.42-21.33 1102.85-19.82 1103.62-17.54 1104.39-15.26 1104.39-12.16L1104.39-12.16 1104.39-3.66 1109.76-3.66 1109.76 0 1094.99 0 1094.99-3.66 1099.14-3.66 1099.14-9.96Q1099.14-12.26 1098.95-13.96 1098.75-15.67 1098.29-16.6L1098.29-16.6Q1097.36-18.53 1095.78-19.34 1094.21-20.14 1092.09-20.14L1092.09-20.14Q1090.86-20.14 1089.6-19.69 1088.33-19.24 1087.15-18.43 1085.98-17.63 1084.98-16.53 1083.98-15.43 1083.3-14.16L1083.3-14.16Q1083.35-13.67 1083.37-13.17 1083.39-12.67 1083.39-12.16L1083.39-12.16 1083.39-3.66 1087.54-3.66 1087.54 0 1073.99 0 1073.99-3.66 1078.15-3.66 1078.15-10.08Q1078.15-12.06 1077.96-13.61 1077.78-15.16 1077.44-16.04L1077.44-16.04Q1076.58-18.26 1074.95-19.2 1073.31-20.14 1071.09-20.14L1071.09-20.14Q1069.87-20.14 1068.62-19.7 1067.38-19.26 1066.22-18.48 1065.06-17.7 1064.07-16.63 1063.08-15.55 1062.4-14.31L1062.4-14.31 1062.4-3.66 1066.55-3.66 1066.55 0 1051.78 0ZM1100.97-23.56L1100.97-23.56Q1102.63-23.14 1103.8-22.16 1104.98-21.17 1105.71-19.65 1106.44-18.14 1106.78-16.16 1107.12-14.18 1107.12-11.82L1107.12-11.82 1107.12-5.13 1106.15-5.13 1106.15-11.99Q1106.15-14.14 1105.82-15.98 1105.49-17.82 1104.83-19.3 1104.17-20.78 1103.21-21.85 1102.24-22.92 1100.97-23.56ZM1079.98-23.56L1079.98-23.56Q1081.15-23.41 1082.04-22.9 1082.93-22.39 1083.42-21.78L1083.42-21.78 1082.71-21.12Q1082.56-21.41 1082.26-21.78 1081.95-22.14 1081.58-22.5 1081.2-22.85 1080.77-23.13 1080.34-23.41 1079.98-23.56ZM1085.15-5.13L1085.15-13.67Q1085.76-14.75 1086.57-15.63 1087.37-16.5 1088.3-17.13 1089.23-17.75 1090.25-18.09 1091.28-18.43 1092.35-18.43L1092.35-18.43Q1094.04-18.43 1095.13-17.8 1096.21-17.16 1096.7-16.19L1096.7-16.19Q1095.94-16.75 1094.89-17.13 1093.84-17.5 1092.31-17.5L1092.31-17.5Q1091.35-17.5 1090.41-17.18 1089.47-16.85 1088.66-16.28 1087.84-15.72 1087.18-14.99 1086.52-14.26 1086.13-13.48L1086.13-13.48 1086.13-5.13 1085.15-5.13ZM1064.16-5.13L1064.16-13.67Q1064.77-14.75 1065.57-15.63 1066.38-16.5 1067.31-17.13 1068.23-17.75 1069.26-18.09 1070.28-18.43 1071.36-18.43L1071.36-18.43Q1073.04-18.43 1074.13-17.8 1075.22-17.16 1075.7-16.19L1075.7-16.19Q1074.95-16.75 1073.9-17.13 1072.85-17.5 1071.31-17.5L1071.31-17.5Q1070.36-17.5 1069.42-17.18 1068.48-16.85 1067.66-16.28 1066.84-15.72 1066.18-14.99 1065.52-14.26 1065.13-13.48L1065.13-13.48 1065.13-5.13 1064.16-5.13ZM1053.24-16.77L1053.24-17.7 1056.12-17.7 1056.12-16.77 1053.24-16.77ZM1096.46 1.71L1111.52 1.71 1111.52-2.29 1112.5-2.29 1112.5 2.64 1096.46 2.64 1096.46 1.71ZM1075.46 1.71L1089.3 1.71 1089.3-2.29 1090.28-2.29 1090.28 2.64 1075.46 2.64 1075.46 1.71ZM1053.24 1.71L1068.31 1.71 1068.31-2.29 1069.28-2.29 1069.28 2.64 1053.24 2.64 1053.24 1.71ZM1117.45 7.86L1121.6 7.86 1121.6-19.41 1116.23-19.41 1116.23-23.56 1126.85-23.56 1126.85-20.31Q1128.68-22.17 1131.29-23.23 1133.9-24.29 1136.98-24.29L1136.98-24.29Q1140.35-24.29 1142.96-23.28 1145.57-22.27 1147.36-20.59 1149.14-18.92 1150.07-16.77 1150.99-14.62 1150.99-12.33L1150.99-12.33Q1150.99-9.35 1149.98-7.02 1148.97-4.69 1147.14-3.08 1145.31-1.46 1142.77-0.61 1140.23 0.24 1137.15 0.24L1137.15 0.24Q1133.98 0.24 1131.33-0.72 1128.68-1.68 1126.85-3.52L1126.85-3.52 1126.85 7.86 1133.44 7.86 1133.44 11.52 1117.45 11.52 1117.45 7.86ZM1128.48 6.64L1128.48-0.05Q1130.24 0.93 1132.55 1.44 1134.86 1.95 1137.2 1.95L1137.2 1.95Q1140.42 1.95 1143.25 1.04 1146.09 0.12 1148.2-1.67 1150.31-3.47 1151.53-6.14 1152.75-8.81 1152.75-12.33L1152.75-12.33Q1152.75-13.84 1152.31-15.44 1151.87-17.04 1151.07-18.54 1150.26-20.04 1149.09-21.36 1147.92-22.68 1146.45-23.63L1146.45-23.63Q1148.28-22.8 1149.66-21.5 1151.04-20.19 1151.96-18.65 1152.87-17.11 1153.34-15.47 1153.8-13.82 1153.8-12.33L1153.8-12.33Q1153.8-8.89 1152.65-6.08 1151.51-3.27 1149.35-1.28 1147.19 0.71 1144.1 1.79 1141.01 2.88 1137.13 2.88L1137.13 2.88Q1136.15 2.88 1135.13 2.77 1134.1 2.66 1133.1 2.47 1132.1 2.27 1131.16 2 1130.22 1.73 1129.46 1.39L1129.46 1.39 1129.46 6.64 1128.48 6.64ZM1126.85-11.84L1126.85-11.84Q1126.85-9.89 1127.67-8.35 1128.48-6.81 1129.9-5.74 1131.32-4.66 1133.21-4.09 1135.1-3.52 1137.27-3.52L1137.27-3.52Q1139.2-3.52 1140.75-4.13 1142.3-4.74 1143.4-5.86 1144.5-6.98 1145.1-8.58 1145.7-10.18 1145.7-12.13L1145.7-12.13Q1145.7-13.99 1145-15.54 1144.3-17.09 1143.08-18.19 1141.86-19.29 1140.22-19.9 1138.57-20.51 1136.66-20.51L1136.66-20.51Q1134.59-20.51 1132.79-19.9 1131-19.29 1129.68-18.15 1128.36-17.02 1127.61-15.42 1126.85-13.82 1126.85-11.84ZM1128.61-11.87L1128.61-11.87Q1128.61-13.26 1129.18-14.53 1129.75-15.8 1130.8-16.75 1131.85-17.7 1133.32-18.26 1134.78-18.82 1136.59-18.82L1136.59-18.82Q1138.52-18.82 1140.01-18.15 1141.5-17.48 1142.28-16.38L1142.28-16.38Q1140.81-17.31 1139.41-17.59 1138.01-17.87 1136.59-17.87L1136.59-17.87Q1135-17.87 1133.72-17.37 1132.44-16.87 1131.52-16.05 1130.61-15.23 1130.12-14.16 1129.63-13.09 1129.63-11.94L1129.63-11.94Q1129.63-9.72 1130.75-8.11 1131.88-6.49 1134.39-5.32L1134.39-5.32Q1133.1-5.59 1132.04-6.16 1130.97-6.74 1130.21-7.58 1129.44-8.42 1129.02-9.5 1128.61-10.57 1128.61-11.87ZM1117.69-16.77L1117.69-17.7 1120.57-17.7 1120.57-16.77 1117.69-16.77ZM1118.91 13.23L1135.2 13.23 1135.2 9.23 1136.17 9.23 1136.17 14.16 1118.91 14.16 1118.91 13.23ZM1162.25-5.47L1162.25-5.47Q1161.76-6.71 1161.53-8.18 1161.29-9.64 1161.29-11.4L1161.29-11.4 1161.29-19.41 1157.14-19.41 1157.14-23.56 1166.54-23.56 1166.54-13.48Q1166.54-11.5 1166.73-9.95 1166.91-8.4 1167.25-7.52L1167.25-7.52Q1167.69-6.4 1168.4-5.62 1169.11-4.83 1170-4.35 1170.89-3.86 1171.93-3.64 1172.96-3.42 1174.09-3.42L1174.09-3.42Q1175.28-3.42 1176.57-3.86 1177.85-4.3 1179.04-5.08 1180.24-5.86 1181.28-6.93 1182.31-8.01 1183.02-9.25L1183.02-9.25 1183.02-19.41 1177.65-19.41 1177.65-23.56 1188.27-23.56 1188.27-3.66 1192.42-3.66 1192.42 0 1183.02 0 1183.02-3.71Q1182.24-2.76 1181.13-1.95 1180.02-1.15 1178.67-0.55 1177.31 0.05 1175.75 0.39 1174.19 0.73 1172.5 0.73L1172.5 0.73Q1168.86 0.73 1166.19-0.79 1163.52-2.32 1162.25-5.47ZM1189.98-5.13L1189.98-22.31 1190.96-22.31 1190.96-5.13 1189.98-5.13ZM1168.3-12.01L1168.3-22.31 1169.28-22.31 1169.28-12.28Q1169.28-10.38 1169.64-9.11 1170.01-7.84 1170.62-7.03 1171.23-6.23 1172.01-5.79 1172.79-5.35 1173.62-5.1L1173.62-5.1Q1171.06-5.13 1169.68-6.8 1168.3-8.47 1168.3-12.01L1168.3-12.01ZM1179.12-16.77L1179.12-17.7 1182-17.7 1182-16.77 1179.12-16.77ZM1158.61-16.77L1158.61-17.7 1160.27-17.7 1160.27-16.77 1158.61-16.77ZM1184.49 1.71L1194.18 1.71 1194.18-2.29 1195.16-2.29 1195.16 2.64 1184.49 2.64 1184.49 1.71ZM1162.52-1.64L1162.52-1.64Q1164.42 0.42 1166.81 1.43 1169.2 2.44 1172.52 2.44L1172.52 2.44Q1175.48 2.44 1177.81 1.67 1180.14 0.9 1182.05-0.42L1182.05-0.42 1182.05 0.71Q1179.9 2.1 1177.58 2.73 1175.26 3.37 1172.55 3.37L1172.55 3.37Q1168.86 3.37 1166.27 2.09 1163.69 0.81 1162.52-1.64ZM1204.9-8.74L1204.9-19.41 1199.52-19.41 1199.52-23.56 1204.9-23.56 1204.9-28.49 1210.14-30.69 1210.14-23.56 1222.28-23.56 1222.28-19.41 1210.14-19.41 1210.14-7.76Q1210.14-5.93 1211.29-5.04 1212.44-4.15 1214.42-4.15L1214.42-4.15 1221.3-4.15 1221.3 0 1214.42 0Q1212.44 0 1210.71-0.43 1208.97-0.85 1207.68-1.87 1206.38-2.88 1205.64-4.55 1204.9-6.23 1204.9-8.74L1204.9-8.74ZM1211.9-25.02L1211.9-29.35 1212.88-29.79 1212.88-25.02 1211.9-25.02ZM1211.85-6.76L1211.85-17.97 1224.04-17.97 1224.04-22.46 1225.01-22.46 1225.01-17.04 1212.83-17.04 1212.83-5.79Q1212-6.01 1211.85-6.76L1211.85-6.76ZM1200.99-16.77L1200.99-17.7 1203.92-17.7 1203.92-16.77 1200.99-16.77ZM1204.75-2.1L1204.75-2.1Q1205.53-1 1206.49-0.27 1207.46 0.46 1208.66 0.9 1209.85 1.34 1211.27 1.53 1212.68 1.71 1214.37 1.71L1214.37 1.71 1223.06 1.71 1223.06-3.05 1224.04-3.05 1224.04 2.64 1214.25 2.64Q1212.37 2.64 1210.83 2.39 1209.29 2.15 1208.11 1.6 1206.92 1.05 1206.08 0.13 1205.24-0.78 1204.75-2.1ZM1235.61-29.64L1235.61-34.52 1241.59-34.52 1241.59-29.64 1235.61-29.64ZM1237.07-27L1237.07-27.93 1243.35-27.93 1243.35-33.15 1244.32-33.15 1244.32-27 1237.07-27ZM1230.48 0L1230.48-3.66 1237.07-3.66 1236.34-19.41 1230.48-19.41 1230.48-23.56 1241.59-23.56 1241.59-3.66 1247.2-3.66 1247.2 0 1230.48 0ZM1243.3-5.13L1243.3-22.31 1244.27-22.31 1244.27-5.13 1243.3-5.13ZM1231.94-16.77L1231.94-17.7 1235.31-17.7 1235.31-16.77 1231.94-16.77ZM1231.94 1.71L1248.96 1.71 1248.96-2.29 1249.94-2.29 1249.94 2.64 1231.94 2.64 1231.94 1.71ZM1254.38 0L1254.38-3.66 1259.75-3.66 1259.75-19.41 1254.38-19.41 1254.38-23.56 1265-23.56 1265-19.87Q1265.75-20.8 1266.82-21.61 1267.88-22.41 1269.2-23.01 1270.52-23.61 1272.05-23.95 1273.59-24.29 1275.28-24.29L1275.28-24.29Q1277.82-24.29 1279.89-23.57 1281.97-22.85 1283.43-21.35 1284.9-19.85 1285.69-17.57 1286.48-15.28 1286.48-12.16L1286.48-12.16 1286.48-3.66 1291.85-3.66 1291.85 0 1277.08 0 1277.08-3.66 1281.23-3.66 1281.23-10.08Q1281.23-12.06 1281.05-13.61 1280.87-15.16 1280.53-16.04L1280.53-16.04Q1280.09-17.16 1279.41-17.94 1278.74-18.73 1277.9-19.21 1277.06-19.7 1276.06-19.92 1275.06-20.14 1273.93-20.14L1273.93-20.14Q1272.74-20.14 1271.46-19.7 1270.17-19.26 1268.97-18.47 1267.76-17.68 1266.72-16.6 1265.68-15.53 1265-14.28L1265-14.28 1265-3.66 1269.15-3.66 1269.15 0 1254.38 0ZM1288.24-5.13L1288.24-11.99Q1288.24-14.14 1287.91-15.98 1287.58-17.82 1286.92-19.3 1286.26-20.78 1285.3-21.85 1284.33-22.92 1283.06-23.56L1283.06-23.56Q1284.72-23.14 1285.9-22.16 1287.07-21.17 1287.8-19.65 1288.53-18.14 1288.87-16.16 1289.22-14.18 1289.22-11.82L1289.22-11.82 1289.22-5.13 1288.24-5.13ZM1266.76-5.13L1266.76-13.67Q1267.37-14.75 1268.21-15.63 1269.05-16.5 1270.04-17.13 1271.03-17.75 1272.11-18.09 1273.2-18.43 1274.28-18.43L1274.28-18.43Q1275.96-18.43 1277.01-17.8 1278.06-17.16 1278.55-16.19L1278.55-16.19Q1277.79-16.75 1276.78-17.14 1275.76-17.53 1274.23-17.53L1274.23-17.53Q1273.27-17.53 1272.3-17.18 1271.32-16.82 1270.44-16.24 1269.56-15.65 1268.86-14.89 1268.15-14.14 1267.73-13.35L1267.73-13.35 1267.73-5.13 1266.76-5.13ZM1255.84-16.77L1255.84-17.7 1258.72-17.7 1258.72-16.77 1255.84-16.77ZM1278.55 1.71L1293.61 1.71 1293.61-2.29 1294.59-2.29 1294.59 2.64 1278.55 2.64 1278.55 1.71ZM1255.84 1.71L1270.91 1.71 1270.91-2.29 1271.88-2.29 1271.88 2.64 1255.84 2.64 1255.84 1.71ZM1299.03 7.47L1301.76 4.27Q1302.96 5.52 1304.44 6.36 1305.91 7.2 1307.44 7.71 1308.97 8.23 1310.43 8.45 1311.89 8.67 1313.07 8.67L1313.07 8.67Q1315.36 8.67 1317.19 8.24 1319.02 7.81 1320.31 6.69 1321.59 5.57 1322.27 3.61 1322.95 1.66 1322.95-1.42L1322.95-1.42 1322.95-3.61Q1322.03-2.73 1320.85-2.03 1319.68-1.32 1318.34-0.81 1317-0.29 1315.52-0.02 1314.04 0.24 1312.53 0.24L1312.53 0.24Q1309.11 0.24 1306.46-0.61 1303.81-1.46 1302.01-3.04 1300.2-4.61 1299.26-6.86 1298.32-9.11 1298.32-11.89L1298.32-11.89Q1298.32-13.4 1298.76-14.9 1299.2-16.41 1300.07-17.79 1300.93-19.17 1302.21-20.35 1303.5-21.53 1305.16-22.41 1306.82-23.29 1308.87-23.79 1310.92-24.29 1313.31-24.29L1313.31-24.29Q1314.43-24.29 1315.72-24.08 1317-23.88 1318.27-23.44 1319.54-23 1320.74-22.3 1321.95-21.61 1322.95-20.63L1322.95-20.63 1322.95-23.56 1333.45-23.56 1333.45-19.41 1328.08-19.41 1328.08-1.42Q1328.08 2.51 1326.98 5.18 1325.88 7.84 1323.91 9.45 1321.93 11.06 1319.21 11.76 1316.48 12.45 1313.24 12.45L1313.24 12.45Q1311.33 12.45 1309.33 12.16 1307.33 11.87 1305.44 11.27 1303.55 10.67 1301.89 9.73 1300.22 8.79 1299.03 7.47L1299.03 7.47ZM1300.47 10.86L1300.47 10.86Q1301.69 11.74 1303.23 12.38 1304.77 13.01 1306.45 13.4 1308.14 13.79 1309.87 13.98 1311.6 14.16 1313.24 14.16L1313.24 14.16Q1315.46 14.16 1317.56 13.83 1319.66 13.5 1321.5 12.77 1323.34 12.04 1324.88 10.84 1326.42 9.64 1327.52 7.9 1328.62 6.15 1329.23 3.82 1329.84 1.49 1329.84-1.54L1329.84-1.54 1329.84-17.7 1335.21-17.7 1335.21-22.19 1336.19-22.19 1336.19-16.77 1330.82-16.77 1330.82-1.54Q1330.82 1.64 1330.18 4.1 1329.55 6.57 1328.4 8.42 1327.25 10.28 1325.64 11.55 1324.03 12.82 1322.08 13.6 1320.12 14.38 1317.88 14.73 1315.63 15.09 1313.24 15.09L1313.24 15.09Q1311.38 15.09 1309.45 14.79 1307.52 14.5 1305.8 13.95 1304.08 13.4 1302.68 12.62 1301.27 11.84 1300.47 10.86ZM1303.62-12.08L1303.62-12.08Q1303.62-10.21 1304.22-8.63 1304.81-7.06 1306-5.92 1307.18-4.79 1308.93-4.15 1310.67-3.52 1312.94-3.52L1312.94-3.52Q1314.75-3.52 1316.55-3.97 1318.34-4.42 1319.77-5.44 1321.2-6.47 1322.08-8.13 1322.95-9.79 1322.95-12.21L1322.95-12.21Q1322.95-13.94 1322.2-15.45 1321.44-16.97 1320.12-18.09 1318.8-19.21 1317.03-19.86 1315.26-20.51 1313.26-20.51L1313.26-20.51Q1311.31-20.51 1309.56-19.9 1307.82-19.29 1306.5-18.16 1305.18-17.04 1304.4-15.49 1303.62-13.94 1303.62-12.08ZM1305.33-12.04L1305.33-12.04Q1305.33-13.43 1305.91-14.66 1306.5-15.89 1307.55-16.81 1308.6-17.72 1310.06-18.26 1311.53-18.8 1313.26-18.8L1313.26-18.8Q1315.58-18.8 1317.11-18.05 1318.63-17.31 1319.51-16.16L1319.51-16.16Q1318.93-16.53 1318.3-16.85 1317.68-17.16 1316.94-17.4 1316.19-17.63 1315.29-17.76 1314.39-17.9 1313.26-17.9L1313.26-17.9Q1311.72-17.9 1310.45-17.42 1309.18-16.94 1308.27-16.14 1307.35-15.33 1306.85-14.29 1306.35-13.26 1306.35-12.13L1306.35-12.13Q1306.35-9.74 1307.49-8.04 1308.62-6.35 1311.26-5.3L1311.26-5.3Q1309.99-5.42 1308.9-5.96 1307.82-6.49 1307.02-7.37 1306.23-8.25 1305.78-9.44 1305.33-10.62 1305.33-12.04ZM1301.27-1.54L1301.27-1.54Q1302.28-0.73 1303.58-0.09 1304.89 0.56 1306.37 1.01 1307.84 1.46 1309.42 1.71 1310.99 1.95 1312.55 1.95L1312.55 1.95Q1315.26 1.95 1317.62 1.31 1319.98 0.66 1321.81-0.54L1321.81-0.54 1321.66 0.68Q1319.83 1.78 1317.5 2.33 1315.17 2.88 1312.58 2.88L1312.58 2.88Q1308.62 2.88 1305.72 1.77 1302.81 0.66 1301.27-1.54Z" opacity="1" transform="matrix(1,0,0,1,0,0)" fill="#000000" class="undefined-text-1" data-fill-palette-color="secondary" id="text-1"></path></svg></g></svg></g></svg></g></svg></g><g><svg viewBox="0 0 156.621720637478 156.56363713525033" height="156.56363713525033" width="156.621720637478"><g><svg xmlns="http://www.w3.org/2000/svg" viewBox="2.0000009536743164 2.022252321243286 60 59.97774887084961" x="0" y="0" height="156.56363713525033" width="156.621720637478" class="icon-icon-0" data-fill-palette-color="accent" id="icon-0"><path d="M21.383 26.224a1.133 1.133 0 0 0-0.094 0.074 1.039 1.039 0 0 0-0.086 0.112 0.9 0.9 0 0 0-0.07 0.093 1.054 1.054 0 0 0-0.06 0.143 0.99 0.99 0 0 0-0.038 0.095A0.969 0.969 0 0 0 21 27V37a1 1 0 0 0 0.485 0.857l10 6 0.011 0.005 0.011 0.008a0.973 0.973 0 0 0 0.164 0.067c0.023 0.008 0.045 0.021 0.069 0.028a0.983 0.983 0 0 0 0.52 0c0.024-0.007 0.046-0.02 0.069-0.028a0.973 0.973 0 0 0 0.164-0.067l0.011-0.008 0.011-0.005 10-6A1 1 0 0 0 43 37V27a0.982 0.982 0 0 0-0.035-0.26 0.774 0.774 0 0 0-0.037-0.09 1.057 1.057 0 0 0-0.061-0.147 1 1 0 0 0-0.069-0.092 0.944 0.944 0 0 0-0.087-0.113 1.118 1.118 0 0 0-0.093-0.074 1.146 1.146 0 0 0-0.1-0.081l-10-6a1 1 0 0 0-1.03 0l-10 6A0.884 0.884 0 0 0 21.383 26.224ZM41 36.434l-8 4.8V33.566l8-4.8ZM40.056 27L32 31.834 28.944 30 37 25.166ZM32 22.166L35.056 24 27 28.834 23.944 27Zm-9 6.6l8 4.8v7.667l-8-4.8Z" fill="#000000" data-fill-palette-color="accent"></path><path d="M33 6l1.2 1.6 1.6-1.2-3-4a1.036 1.036 0 0 0-1.6 0l-3 4 1.6 1.2L31 6v8h2Z" fill="#000000" data-fill-palette-color="accent"></path><path d="M33 58V50H31v8l-1.2-1.6-1.6 1.2 3 4a1 1 0 0 0 1.6 0l3-4-1.6-1.2Z" fill="#000000" data-fill-palette-color="accent"></path><rect x="31" y="16" width="2" height="2" fill="#000000" data-fill-palette-color="accent"></rect><rect x="31" y="46" width="2" height="2" fill="#000000" data-fill-palette-color="accent"></rect><path d="M14 33V31H6l1.6-1.2L6.4 28.2l-4 3a1 1 0 0 0 0 1.6l4 3 1.2-1.6L6 33Z" fill="#000000" data-fill-palette-color="accent"></path><path d="M57.6 28.2l-1.2 1.6L58 31H50v2h8l-1.6 1.2 1.2 1.6 4-3a1 1 0 0 0 0-1.6Z" fill="#000000" data-fill-palette-color="accent"></path><rect x="16" y="31" width="2" height="2" fill="#000000" data-fill-palette-color="accent"></rect><rect x="46" y="31" width="2" height="2" fill="#000000" data-fill-palette-color="accent"></rect><path d="M19.979 18.565l-5.656-5.656 1.979 0.282 0.283-1.98L11.636 10.5A1 1 0 0 0 10.5 11.636l0.707 4.949 1.98-0.283-0.282-1.979 5.656 5.656Z" fill="#000000" data-fill-palette-color="accent"></path><path d="M50.809 47.7l0.282 1.979-5.656-5.656-1.414 1.414 5.656 5.656L47.7 50.809l-0.283 1.98 4.949 0.707a0.978 0.978 0 0 0 0.142 0.01 1 1 0 0 0 0.99-1.142l-0.707-4.949Z" fill="#000000" data-fill-palette-color="accent"></path><rect x="20.394" y="20.394" width="2" height="2" transform="translate(-8.862 21.394) rotate(-45)" fill="#000000" data-fill-palette-color="accent"></rect><rect x="41.607" y="41.607" width="2" height="2" transform="translate(-17.648 42.606) rotate(-45)" fill="#000000" data-fill-palette-color="accent"></rect><path d="M18.565 44.021l-5.656 5.656 0.282-1.979-1.98-0.283L10.5 52.364a1 1 0 0 0 0.99 1.142 0.978 0.978 0 0 0 0.142-0.01l4.949-0.707-0.283-1.98-1.979 0.282 5.656-5.656Z" fill="#000000" data-fill-palette-color="accent"></path><path d="M52.789 16.585l0.707-4.949a1 1 0 0 0-0.283-0.849 0.99 0.99 0 0 0-0.849-0.283l-4.949 0.707 0.283 1.98 1.979-0.282-5.656 5.656 1.414 1.414 5.656-5.656L50.809 16.3Z" fill="#000000" data-fill-palette-color="accent"></path><rect x="20.394" y="41.607" width="2" height="2" transform="translate(-23.861 27.607) rotate(-45)" fill="#000000" data-fill-palette-color="accent"></rect><rect x="41.607" y="20.394" width="2" height="2" transform="translate(-2.648 36.393) rotate(-45)" fill="#000000" data-fill-palette-color="accent"></rect></svg></g></svg></g></svg></g></svg><rect width="395.52" height="104.42285360564121" fill="none" stroke="none" visibility="hidden"></rect></g></svg></g></svg>